<?xml version="1.0" standalone="no"?>
<!DOCTYPE svg PUBLIC "-//W3C//DTD SVG 1.1//EN" "http://www.w3.org/Graphics/SVG/1.1/DTD/svg11.dtd" >
<svg xmlns="http://www.w3.org/2000/svg" xmlns:xlink="http://www.w3.org/1999/xlink" version="1.1">
<metadata>
Created by FontForge 20170731 at Fri Aug 19 15:24:38 2022
 By Aleksey,,,
Copyright (c) 2016 by Chris Simpson.
</metadata>
<defs>
<font id="Metropolis-ExtraLight" horiz-adv-x="1157" >
  <font-face 
    font-family="Metropolis Extra Light"
    font-weight="400"
    font-stretch="normal"
    units-per-em="2048"
    panose-1="0 0 5 0 0 0 0 0 0 0"
    ascent="1628"
    descent="-420"
    x-height="1059"
    cap-height="1407"
    bbox="-340 -553 2257 1976"
    underline-thickness="40"
    underline-position="-312"
    unicode-range="U+0020-2212"
  />
<missing-glyph horiz-adv-x="1024" 
d="M840 1628v-2048h-650v2048h650zM682 1491h-338v-68h133v-75h-135v-68h340v68h-135v75h135v68zM547 1227h-205v-213h340v69h-135v144zM477 1157v-74h-67v74h67zM682 958h-340v-67h135v-76h-135v-67h205v143h135v67zM682 836h-68v-136h-272v-69h340v205zM682 586h-205v-115
h70v47h67v-96h-204v164h-68v-232h340v232zM682 231h-340v-231h340v231zM614 164v-96h-204v96h204zM682 -47h-340v-68h143l-143 -96v-68h340v68h-209l143 96h66v68z" />
    <glyph glyph-name=".notdef" horiz-adv-x="1024" 
d="M840 1628v-2048h-650v2048h650zM682 1491h-338v-68h133v-75h-135v-68h340v68h-135v75h135v68zM547 1227h-205v-213h340v69h-135v144zM477 1157v-74h-67v74h67zM682 958h-340v-67h135v-76h-135v-67h205v143h135v67zM682 836h-68v-136h-272v-69h340v205zM682 586h-205v-115
h70v47h67v-96h-204v164h-68v-232h340v232zM682 231h-340v-231h340v231zM614 164v-96h-204v96h204zM682 -47h-340v-68h143l-143 -96v-68h340v68h-209l143 96h66v68z" />
    <glyph glyph-name=".null" horiz-adv-x="0" 
 />
    <glyph glyph-name="nonmarkingreturn" horiz-adv-x="682" 
 />
    <glyph glyph-name="space" unicode=" " horiz-adv-x="593" 
 />
    <glyph glyph-name="exclam" unicode="!" horiz-adv-x="493" 
d="M207 395l-14 1012h112l-14 -1012h-84zM250 -25q-33 0 -56.5 23.5t-23.5 56.5q0 30 23.5 53t56.5 23q30 0 53 -23t23 -53q0 -32 -22.5 -56t-53.5 -24z" />
    <glyph glyph-name="quotedbl" unicode="&#x22;" horiz-adv-x="804" 
d="M184 915q-4 32 -15.5 119t-17.5 144t-6 92q0 30 21.5 51.5t50.5 21.5q30 0 52 -21.5t22 -51.5q0 -35 -6 -92t-17.5 -144t-15.5 -119h-68zM555 915q-4 32 -15.5 119t-17.5 144t-6 92q0 30 21 51.5t51 21.5t52 -21.5t22 -51.5q0 -35 -6 -92t-17.5 -144t-15.5 -119h-68z" />
    <glyph glyph-name="numbersign" unicode="#" horiz-adv-x="1372" 
d="M1268 932h-258l-117 -457h260l-23 -90h-260l-96 -385h-96l96 385h-346l-96 -385h-96l96 385h-252l22 90h252l117 457h-256l23 90h256l96 385h96l-96 -385h346l96 385h96l-96 -385h258zM797 475l116 457h-346l-116 -457h346z" />
    <glyph glyph-name="dollar" unicode="$" horiz-adv-x="1241" 
d="M1130 369q0 -166 -124.5 -276t-333.5 -116v-129h-103v134q-136 12 -258 69t-217 150l64 80q171 -171 411 -201v598q-216 54 -313.5 135t-97.5 219q0 164 114.5 275t296.5 125v122h103v-122q243 -21 430 -199l-62 -80q-163 157 -368 178v-569q239 -58 348.5 -147.5
t109.5 -245.5zM260 1040q0 -90 73.5 -148.5t235.5 -103.5v545q-136 -10 -222.5 -92t-86.5 -201zM672 76q161 4 258.5 84t97.5 200q0 108 -84 175.5t-272 115.5v-575z" />
    <glyph glyph-name="percent" unicode="%" horiz-adv-x="1593" 
d="M403 715q-136 0 -221.5 98t-85.5 250q0 156 87 256t223 100t221.5 -99.5t85.5 -252.5q0 -154 -87.5 -253t-222.5 -99zM262 0l963 1407h110l-962 -1407h-111zM406 801q94 0 154.5 74.5t60.5 189.5q0 117 -61.5 192.5t-156.5 75.5t-155 -75.5t-60 -192.5q0 -115 62 -189.5
t156 -74.5zM1186 -20q-135 0 -221 99t-86 253q0 153 86.5 252.5t222.5 99.5t221.5 -99t85.5 -251q0 -154 -87 -254t-222 -100zM1188 66q94 0 154.5 74.5t60.5 191.5t-61 191.5t-156 74.5t-155 -74.5t-60 -189.5q0 -117 61 -192.5t156 -75.5z" />
    <glyph glyph-name="ampersand" unicode="&#x26;" horiz-adv-x="1337" 
d="M1251 31l-96 -45q-146 146 -207 209q-187 -220 -420 -220q-185 0 -314.5 115.5t-129.5 288.5q0 257 342 401q-76 101 -107.5 172t-31.5 144q0 133 96.5 230t234.5 97q132 0 228 -96.5t96 -228.5q0 -54 -18.5 -99.5t-48 -79.5t-79 -66.5t-97.5 -56t-117 -51.5
q106 -128 362 -399q101 144 189 342l90 -41q-112 -236 -211 -373q71 -71 239 -243zM618 1329q-97 0 -164 -68.5t-67 -166.5q0 -58 30.5 -121t102.5 -154q86 35 139.5 61.5t98.5 59.5t64.5 71.5t19.5 86.5q0 93 -65.5 162t-158.5 69zM530 70q188 0 353 192q-253 265 -400 445
q-64 -28 -113 -57.5t-93.5 -69.5t-68.5 -91.5t-24 -111.5q0 -129 102 -218t244 -89z" />
    <glyph glyph-name="quotesingle" unicode="'" horiz-adv-x="436" 
d="M184 915q-4 32 -15.5 119t-17.5 144t-6 92q0 30 21.5 51.5t50.5 21.5q30 0 52 -21.5t22 -51.5q0 -35 -6 -92t-17.5 -144t-15.5 -119h-68z" />
    <glyph glyph-name="parenleft" unicode="(" horiz-adv-x="694" 
d="M539 -348q-195 186 -303.5 420t-108.5 471q0 235 108 468t304 423l61 -64q-178 -185 -273.5 -395.5t-95.5 -431.5t96 -432t273 -394z" />
    <glyph glyph-name="parenright" unicode=")" horiz-adv-x="694" 
d="M156 -348l-62 65q177 183 273 394t96 432t-95.5 431.5t-273.5 395.5l62 64q196 -189 303.5 -422t107.5 -469q0 -238 -108 -471.5t-303 -419.5z" />
    <glyph glyph-name="asterisk" unicode="*" horiz-adv-x="770" 
d="M383 809q-17 0 -29 11t-12 26q0 41 12 123.5t15 109.5q-21 -15 -86 -68t-101 -73q-12 -7 -29 -1.5t-26 19.5q-8 15 -3.5 31t17.5 23q34 22 113.5 53.5t99.5 40.5q-23 11 -100.5 42.5t-112.5 51.5q-12 6 -16.5 22t2.5 31q9 15 25 20.5t30 -1.5q33 -21 96.5 -72t90.5 -70
q-3 27 -15 110t-12 124q0 15 12 26t29 11q18 0 30.5 -11t12.5 -26q0 -32 -5 -70t-12.5 -86t-11.5 -78q27 19 91 70.5t98 71.5q12 7 29 1t24 -20q10 -15 6 -30t-18 -23q-35 -22 -117 -54.5t-98 -39.5q19 -9 99 -41.5t116 -52.5q14 -6 18 -22.5t-6 -31.5q-7 -15 -24 -20.5
t-29 2.5q-32 20 -95.5 70t-93.5 71q4 -30 11.5 -78t12.5 -85.5t5 -69.5q0 -15 -12.5 -26t-30.5 -11z" />
    <glyph glyph-name="plus" unicode="+" horiz-adv-x="1214" 
d="M1077 733v-98h-420v-420h-100v420h-420v98h420v422h100v-422h420z" />
    <glyph glyph-name="comma" unicode="," horiz-adv-x="509" 
d="M223 -258l-61 45q84 97 106 188q-35 0 -57.5 22.5t-22.5 55.5q0 32 23 55t57 23q40 0 63 -30.5t23 -82.5q0 -56 -30.5 -121t-100.5 -155z" />
    <glyph glyph-name="hyphen" unicode="-" horiz-adv-x="759" 
d="M115 508v98h530v-98h-530z" />
    <glyph glyph-name="period" unicode="." horiz-adv-x="452" 
d="M229 -25q-33 0 -56 23.5t-23 56.5q0 30 23 53t56 23q30 0 53 -23t23 -53q0 -32 -22.5 -56t-53.5 -24z" />
    <glyph glyph-name="slash" unicode="/" horiz-adv-x="786" 
d="M-33 -152l719 1674h111l-719 -1674h-111z" />
    <glyph glyph-name="zero" unicode="0" horiz-adv-x="1351" 
d="M676 -25q-161 0 -287.5 92.5t-197 259t-70.5 378.5q0 211 70.5 376.5t197 258t287.5 92.5t287.5 -92.5t197 -258t70.5 -376.5q0 -212 -70.5 -378.5t-197 -259t-287.5 -92.5zM676 74q199 0 325.5 177t126.5 454t-126.5 452.5t-325.5 175.5q-198 0 -325.5 -176t-127.5 -452
q0 -277 127.5 -454t325.5 -177z" />
    <glyph glyph-name="one" unicode="1" horiz-adv-x="694" 
d="M397 0v1278l-295 -186l-49 79l365 236h82v-1407h-103z" />
    <glyph glyph-name="two" unicode="2" horiz-adv-x="1191" 
d="M100 0v98l537 459q289 248 289 461q0 132 -93.5 225.5t-236.5 93.5q-116 0 -221 -61t-187 -176l-75 61q91 133 216 202t267 69q187 0 309.5 -119.5t122.5 -292.5q0 -133 -78.5 -262.5t-244.5 -272.5l-451 -385h803v-100h-957z" />
    <glyph glyph-name="three" unicode="3" horiz-adv-x="1150" 
d="M573 -25q-294 0 -491 261l72 69q160 -231 419 -231q151 0 255 90.5t104 222.5t-104 204.5t-289 72.5h-136v98h138q166 -2 263 71t97 203q0 124 -101 210.5t-241 86.5q-220 0 -385 -227l-74 63q199 263 467 263q119 0 219.5 -51t159 -139t58.5 -193q0 -123 -66.5 -209
t-177.5 -119q123 -27 198.5 -116t75.5 -222q0 -170 -134 -289t-327 -119z" />
    <glyph glyph-name="four" unicode="4" horiz-adv-x="1232" 
d="M805 0v367h-709l-14 94l696 946h129v-942h226v-98h-226v-367h-102zM205 465h600v819z" />
    <glyph glyph-name="five" unicode="5" horiz-adv-x="1198" 
d="M612 -25q-146 0 -275 59.5t-222 164.5l67 75q84 -95 197 -148.5t235 -53.5q152 0 258.5 105.5t106.5 254.5q0 139 -105 236.5t-256 97.5q-169 0 -321 -117l-88 45l20 713h791v-100h-692l-15 -549q132 104 326 104q184 0 313 -121.5t129 -302.5q0 -194 -136.5 -328.5
t-332.5 -134.5z" />
    <glyph glyph-name="six" unicode="6" horiz-adv-x="1216" 
d="M647 879q185 0 316 -126.5t131 -314.5q0 -192 -136 -327.5t-331 -135.5q-244 0 -374 189.5t-130 517.5q0 213 69.5 384.5t193 268.5t276.5 97q223 0 399 -168l-55 -82q-154 151 -349 151q-123 0 -222 -83.5t-154.5 -232.5t-55.5 -335q0 -39 2 -57q42 111 158.5 182.5
t261.5 71.5zM627 70q153 0 258.5 108.5t105.5 255.5t-106 248.5t-256 101.5q-140 0 -249 -84t-140 -213q33 -197 132 -307t255 -110z" />
    <glyph glyph-name="seven" unicode="7" horiz-adv-x="1214" 
d="M319 0l619 1307h-817v100h938v-80l-623 -1327h-117z" />
    <glyph glyph-name="eight" unicode="8" horiz-adv-x="1181" 
d="M590 -25q-201 0 -342.5 113.5t-141.5 276.5q0 123 87 222t223 138q-122 44 -197.5 135t-75.5 203q0 103 62 188.5t164.5 133t220.5 47.5q185 0 317.5 -107t132.5 -262q0 -114 -76 -205.5t-196 -132.5q135 -41 221 -139.5t86 -220.5q0 -108 -65 -198t-176.5 -141
t-243.5 -51zM590 772q146 9 247 86.5t101 194.5q0 116 -102.5 198t-245.5 82q-142 0 -243 -82t-101 -198q0 -117 100 -194.5t244 -86.5zM590 74q158 0 270.5 86.5t112.5 210.5q0 127 -112 210.5t-271 88.5q-157 -5 -269 -88.5t-112 -210.5q0 -124 112.5 -210.5t268.5 -86.5z
" />
    <glyph glyph-name="nine" unicode="9" horiz-adv-x="1216" 
d="M590 1432q244 0 374 -189.5t130 -517.5q0 -213 -69.5 -384.5t-193 -268.5t-276.5 -97q-223 0 -399 168l55 82q154 -151 348 -151q123 0 222 83.5t154.5 232.5t55.5 335q0 39 -2 57q-42 -111 -158.5 -182.5t-261.5 -71.5q-185 0 -315.5 126.5t-130.5 314.5
q0 125 61.5 231.5t169 169t236.5 62.5zM588 623q140 0 249 84t140 213q-33 197 -132 307t-255 110q-153 0 -259 -108.5t-106 -255.5t106.5 -248.5t256.5 -101.5z" />
    <glyph glyph-name="colon" unicode=":" horiz-adv-x="452" 
d="M229 872q-34 0 -56.5 23t-22.5 57q0 30 23 53t56 23q30 0 53 -23t23 -53q0 -33 -22.5 -56.5t-53.5 -23.5zM229 -25q-33 0 -56 23.5t-23 56.5q0 30 23 53t56 23q30 0 53 -23t23 -53q0 -32 -22.5 -56t-53.5 -24z" />
    <glyph glyph-name="semicolon" unicode=";" horiz-adv-x="509" 
d="M268 872q-33 0 -56.5 23.5t-23.5 56.5q0 30 23.5 53t56.5 23q30 0 53 -23t23 -53q0 -32 -22.5 -56t-53.5 -24zM223 -258l-61 45q84 97 106 188q-35 0 -57.5 22.5t-22.5 55.5q0 32 23 55t57 23q40 0 63 -30.5t23 -82.5q0 -56 -30.5 -121t-100.5 -155z" />
    <glyph glyph-name="less" unicode="&#x3c;" horiz-adv-x="1200" 
d="M1044 199l-931 454v101l931 454v-106l-817 -397l817 -398v-108z" />
    <glyph glyph-name="equal" unicode="=" horiz-adv-x="1214" 
d="M137 860v98h940v-98h-940zM137 410v98h940v-98h-940z" />
    <glyph glyph-name="greater" unicode="&#x3e;" horiz-adv-x="1200" 
d="M156 199v108l817 398l-817 397v106l931 -454v-101z" />
    <glyph glyph-name="question" unicode="?" horiz-adv-x="1009" 
d="M408 395v350q179 13 294 98t115 201q0 118 -88.5 203.5t-216.5 85.5q-234 0 -387 -207l-70 70q190 236 461 236q169 0 286.5 -111t117.5 -266q0 -139 -115 -248t-295 -143v-269h-102zM461 -25q-33 0 -56.5 23.5t-23.5 56.5q0 30 23.5 53t56.5 23q30 0 53 -23t23 -53
q0 -32 -22.5 -56t-53.5 -24z" />
    <glyph glyph-name="at" unicode="@" horiz-adv-x="1804" 
d="M872 -238q-208 0 -388.5 104t-287 281.5t-106.5 382.5q0 170 69 327.5t184 272.5t273.5 183.5t329.5 68.5q154 0 296 -59t245.5 -157t165 -233t61.5 -280q0 -121 -31 -217.5t-83 -155t-115.5 -89.5t-132.5 -31q-90 0 -150.5 46.5t-77.5 129.5q-61 -78 -150 -127t-190 -49
q-141 0 -231 99t-90 255q0 103 38 198t100.5 163.5t146 109.5t172.5 41q102 0 176.5 -47t111.5 -119l29 135l100 -10q-112 -507 -112 -594q0 -69 43 -109t112 -40q44 0 88.5 24.5t83.5 72.5t63.5 129.5t24.5 184.5q0 131 -56 252.5t-150 209.5t-223.5 141t-268.5 53
q-155 0 -298 -62.5t-247 -167t-166.5 -248.5t-62.5 -299q0 -112 36.5 -218t102.5 -192t153.5 -151t195.5 -101t221 -36q126 0 228 29t214 96l37 -55q-119 -75 -232 -108.5t-252 -33.5zM809 250q139 0 232.5 104t119.5 260q23 143 -39.5 232.5t-189.5 89.5
q-151 0 -261 -123.5t-110 -290.5q0 -121 69 -196.5t179 -75.5z" />
    <glyph glyph-name="A" unicode="A" horiz-adv-x="1484" 
d="M1307 0l-154 346h-821l-154 -346h-112l620 1407h113l620 -1407h-112zM375 444h735l-367 836z" />
    <glyph glyph-name="B" unicode="B" horiz-adv-x="1357" 
d="M193 0v1407h606q170 0 278.5 -98t108.5 -252q0 -111 -53.5 -196t-143.5 -124q114 -43 183 -139t69 -213q0 -169 -117.5 -277t-300.5 -108h-630zM295 784h508q123 0 201.5 75t78.5 192q0 114 -83 186t-214 72h-491v-525zM295 98h516q143 0 235.5 82t92.5 211t-92.5 212
t-235.5 83h-516v-588z" />
    <glyph glyph-name="C" unicode="C" horiz-adv-x="1392" 
d="M827 -25q-192 0 -358.5 99.5t-264.5 268t-98 362.5q0 145 58 279.5t155.5 232.5t230.5 156.5t277 58.5t275 -56.5t231 -158.5l-71 -72q-86 89 -198.5 138.5t-236.5 49.5t-238 -50.5t-197.5 -135.5t-133 -201t-49.5 -241q0 -168 84 -313.5t226.5 -231.5t307.5 -86
q124 0 236.5 49.5t198.5 138.5l71 -72q-101 -101 -232 -158t-274 -57z" />
    <glyph glyph-name="D" unicode="D" horiz-adv-x="1538" 
d="M193 0v1407h479q213 0 380.5 -89t261 -249.5t93.5 -363.5q0 -204 -93.5 -364.5t-261.5 -250.5t-380 -90h-479zM295 98h377q183 0 327 77.5t224 216t80 313.5t-80 313t-224 214.5t-327 76.5h-377v-1211z" />
    <glyph glyph-name="E" unicode="E" horiz-adv-x="1226" 
d="M1114 1307h-850v-541h780v-98h-780v-568h850v-100h-952v1407h952v-100z" />
    <glyph glyph-name="F" unicode="F" horiz-adv-x="1216" 
d="M1141 1307h-877v-541h793v-98h-793v-668h-102v1407h979v-100z" />
    <glyph glyph-name="G" unicode="G" horiz-adv-x="1523" 
d="M809 612v101h563v-525q-105 -99 -249 -156t-296 -57q-192 0 -358.5 99.5t-264.5 268t-98 362.5q0 145 58 279.5t155.5 232.5t230.5 156.5t277 58.5q153 0 296.5 -56t248.5 -155l-72 -72q-90 85 -216 134.5t-257 49.5q-124 0 -238 -50.5t-197.5 -135.5t-133 -201
t-49.5 -241q0 -168 84 -313.5t226.5 -231.5t307.5 -86q121 0 238 41.5t205 115.5v381h-461z" />
    <glyph glyph-name="H" unicode="H" horiz-adv-x="1415" 
d="M1151 1407h102v-1407h-102v668h-887v-668h-102v1407h102v-641h887v641z" />
    <glyph glyph-name="I" unicode="I" horiz-adv-x="425" 
d="M162 0v1407h102v-1407h-102z" />
    <glyph glyph-name="J" unicode="J" horiz-adv-x="1077" 
d="M471 -25q-123 0 -238 65t-180 169l70 76q55 -94 149.5 -152.5t198.5 -58.5q145 0 236.5 103.5t91.5 266.5v963h102v-963q0 -206 -120.5 -337.5t-309.5 -131.5z" />
    <glyph glyph-name="K" unicode="K" horiz-adv-x="1286" 
d="M188 0v1407h103v-846l776 846h135l-586 -639l629 -768h-131l-569 694l-254 -274v-420h-103z" />
    <glyph glyph-name="L" unicode="L" horiz-adv-x="1107" 
d="M242 100h796v-100h-899v1407h103v-1307z" />
    <glyph glyph-name="M" unicode="M" horiz-adv-x="1691" 
d="M193 0v1407h102l551 -1036l551 1036h102v-1407h-102v1194l-551 -1036l-551 1036v-1194h-102z" />
    <glyph glyph-name="N" unicode="N" horiz-adv-x="1519" 
d="M193 0v1407h102l930 -1243v1243h102v-1407h-102l-930 1243v-1243h-102z" />
    <glyph glyph-name="O" unicode="O" horiz-adv-x="1652" 
d="M827 -25q-192 0 -358.5 99.5t-264.5 268t-98 362.5q0 145 58 279.5t155.5 232.5t230.5 156.5t277 58.5t277 -58.5t229.5 -156.5t154.5 -232.5t58 -279.5q0 -194 -97.5 -362.5t-263.5 -268t-358 -99.5zM827 74q123 0 237 51t197 136t133 201.5t50 242.5q0 167 -84 312
t-226.5 230.5t-306.5 85.5q-124 0 -238 -50.5t-197.5 -135.5t-133 -201t-49.5 -241q0 -168 84 -313.5t226.5 -231.5t307.5 -86z" />
    <glyph glyph-name="P" unicode="P" horiz-adv-x="1312" 
d="M162 0v1407h586q216 0 356.5 -122.5t140.5 -313.5q0 -192 -140.5 -315.5t-356.5 -123.5h-484v-532h-102zM264 633h463q184 0 299 93t115 245q0 150 -115 243t-299 93h-463v-674z" />
    <glyph glyph-name="Q" unicode="Q" horiz-adv-x="1652" 
d="M1546 705q0 -139 -51 -266.5t-143 -227.5l157 -135l-67 -76l-162 141q-203 -166 -453 -166q-192 0 -358.5 99.5t-264.5 268t-98 362.5q0 145 58 279.5t155.5 232.5t230.5 156.5t277 58.5t277 -58.5t229.5 -156.5t154.5 -232.5t58 -279.5zM827 74q208 0 375 135l-256 223
l66 76l264 -229q79 86 123.5 196.5t44.5 229.5q0 167 -84 312t-226.5 230.5t-306.5 85.5q-124 0 -238 -50.5t-197.5 -135.5t-133 -201t-49.5 -241q0 -168 84 -313.5t226.5 -231.5t307.5 -86z" />
    <glyph glyph-name="R" unicode="R" horiz-adv-x="1316" 
d="M1245 971q0 -172 -115.5 -290.5t-300.5 -141.5l377 -539h-121l-372 532h-449v-532h-102v1407h586q216 0 356.5 -122.5t140.5 -313.5zM264 1307v-674h463q184 0 299 93t115 245q0 150 -115 243t-299 93h-463z" />
    <glyph glyph-name="S" unicode="S" horiz-adv-x="1241" 
d="M649 -23q-160 0 -303.5 58.5t-251.5 165.5l64 80q96 -96 224 -150.5t271 -54.5q168 0 271.5 80.5t103.5 203.5q0 115 -96 184.5t-314 121.5q-244 56 -352 138.5t-108 227.5q0 174 128.5 288t327.5 114q136 0 261 -52.5t227 -148.5l-62 -80q-191 182 -432 182
q-151 0 -249.5 -84t-98.5 -211q0 -101 95.5 -163t314.5 -115q240 -57 350 -146.5t110 -246.5q0 -170 -131.5 -281t-349.5 -111z" />
    <glyph glyph-name="T" unicode="T" horiz-adv-x="1290" 
d="M594 0v1307h-502v100h1106v-100h-502v-1307h-102z" />
    <glyph glyph-name="U" unicode="U" horiz-adv-x="1470" 
d="M735 -25q-246 0 -402.5 163.5t-156.5 418.5v850h103v-850q0 -212 127.5 -347.5t328.5 -135.5t329 135.5t128 347.5v850h102v-850q0 -255 -156.5 -418.5t-402.5 -163.5z" />
    <glyph glyph-name="V" unicode="V" horiz-adv-x="1484" 
d="M1307 1407h112l-620 -1407h-113l-620 1407h112l565 -1280z" />
    <glyph glyph-name="W" unicode="W" horiz-adv-x="2148" 
d="M551 0l-475 1407h112l418 -1239l412 1239h112l412 -1239l418 1239h113l-476 -1407h-104l-418 1257l-420 -1257h-104z" />
    <glyph glyph-name="X" unicode="X" horiz-adv-x="1359" 
d="M1282 1407l-539 -702l539 -705h-129l-473 621l-475 -621h-127l538 702l-538 705h129l473 -621l475 621h127z" />
    <glyph glyph-name="Y" unicode="Y" horiz-adv-x="1320" 
d="M608 0v571l-571 836h129l496 -729l495 729h127l-571 -836v-571h-105z" />
    <glyph glyph-name="Z" unicode="Z" horiz-adv-x="1282" 
d="M119 0v84l907 1223h-893v100h1026v-84l-907 -1223h915v-100h-1048z" />
    <glyph glyph-name="bracketleft" unicode="[" horiz-adv-x="729" 
d="M166 -236v1739h463v-88h-369v-1562h369v-89h-463z" />
    <glyph glyph-name="backslash" unicode="\" horiz-adv-x="786" 
d="M709 -152l-719 1674h110l719 -1674h-110z" />
    <glyph glyph-name="bracketright" unicode="]" horiz-adv-x="729" 
d="M100 -236v89h369v1562h-369v88h463v-1739h-463z" />
    <glyph glyph-name="asciicircum" unicode="^" horiz-adv-x="976" 
d="M111 846l329 561h97l329 -561h-104l-275 469l-272 -469h-104z" />
    <glyph glyph-name="underscore" unicode="_" horiz-adv-x="1212" 
d="M-4 -270v94h1221v-94h-1221z" />
    <glyph glyph-name="grave" unicode="`" horiz-adv-x="620" 
d="M387 1180l-258 268l111 25l252 -293h-105z" />
    <glyph glyph-name="a" unicode="a" horiz-adv-x="1146" 
d="M575 1083q194 0 304 -121t110 -317v-645h-100v170q-58 -91 -171.5 -143t-232.5 -52q-168 0 -275.5 94t-107.5 246q0 155 118.5 253t303.5 98q165 0 365 -70v49q0 66 -17 124.5t-53 110t-101 81.5t-153 30q-152 0 -319 -94l-41 84q188 102 370 102zM500 70q128 0 244 69.5
t145 192.5v178q-187 63 -350 63q-148 0 -243 -72t-95 -184q0 -109 85.5 -178t213.5 -69z" />
    <glyph glyph-name="b" unicode="b" horiz-adv-x="1267" 
d="M678 1083q130 0 240 -73t174.5 -200.5t64.5 -279.5t-64.5 -280t-174.5 -201.5t-240 -73.5q-134 0 -240 63t-168 177v-215h-100v1432h100v-586q62 112 168.5 174.5t239.5 62.5zM657 70q164 0 280 134t116 326q0 190 -116 324.5t-280 134.5q-169 0 -278 -129t-109 -330
q0 -202 109 -331t278 -129z" />
    <glyph glyph-name="c" unicode="c" horiz-adv-x="1083" 
d="M633 -25q-113 0 -212 42.5t-170 116t-112 176.5t-41 220q0 155 69.5 282t192.5 199t273 72q104 0 199.5 -41t168.5 -114l-71 -70q-58 61 -135 96t-162 35q-186 0 -309 -131t-123 -328q0 -198 123 -329t309 -131q171 0 301 133l70 -70q-73 -75 -169 -116.5t-202 -41.5z
" />
    <glyph glyph-name="d" unicode="d" horiz-adv-x="1267" 
d="M997 1432h101v-1432h-101v215q-62 -114 -167.5 -177t-239.5 -63q-130 0 -240 73.5t-174.5 201.5t-64.5 280t64.5 279.5t174.5 200.5t240 73q133 0 239 -62.5t168 -174.5v586zM610 70q169 0 278 129t109 331q0 201 -109 330t-278 129q-164 0 -279.5 -134t-115.5 -325
q0 -192 115.5 -326t279.5 -134z" />
    <glyph glyph-name="e" unicode="e" horiz-adv-x="1218" 
d="M623 70q110 0 211.5 37t160.5 102l66 -70q-67 -73 -190 -118.5t-246 -45.5q-105 0 -201.5 43.5t-168 117.5t-114.5 178t-43 218q0 153 69.5 279.5t188.5 199t262 72.5q231 0 367.5 -163t136.5 -433h-921q15 -176 135.5 -296.5t286.5 -120.5zM621 989q-166 0 -284.5 -115
t-135.5 -292h821q-11 183 -118 295t-283 112z" />
    <glyph glyph-name="f" unicode="f" horiz-adv-x="704" 
d="M356 1204v-145h285v-94h-285v-965h-100v965h-180v94h180v145q0 119 64 195t165 76q114 0 197 -68l-51 -76q-55 49 -139 49q-59 0 -97.5 -50t-38.5 -126z" />
    <glyph glyph-name="g" unicode="g" horiz-adv-x="1249" 
d="M979 1059h100v-946q0 -204 -138 -334.5t-355 -130.5q-119 0 -237 39.5t-191 101.5l47 84q66 -58 168 -94.5t200 -36.5q183 0 294.5 102.5t111.5 268.5v217q-59 -121 -171.5 -186.5t-252.5 -65.5q-129 0 -237.5 67t-171 183t-62.5 254q0 210 137 355.5t334 145.5
q144 0 254 -65t170 -187v228zM575 172q173 0 288.5 115.5t115.5 294.5q0 177 -115.5 292t-288.5 115q-161 0 -274 -119t-113 -288q0 -170 113 -290t274 -120z" />
    <glyph glyph-name="h" unicode="h" 
d="M606 1083q173 0 284 -111t111 -284v-688h-100v674q0 138 -86.5 226.5t-222.5 88.5q-142 0 -238 -89.5t-96 -223.5v-676h-100v1432h100v-555q41 94 135 150t213 56z" />
    <glyph glyph-name="i" unicode="i" horiz-adv-x="407" 
d="M205 1278q-32 0 -54 22.5t-22 53.5q0 30 22 51.5t54 21.5q29 0 51.5 -22t22.5 -51q0 -31 -22.5 -53.5t-51.5 -22.5zM154 0v1059h100v-1059h-100z" />
    <glyph glyph-name="j" unicode="j" horiz-adv-x="372" 
d="M188 1278q-32 0 -53.5 22.5t-21.5 53.5q0 30 21.5 51.5t53.5 21.5q29 0 51.5 -22t22.5 -51q0 -31 -22.5 -53.5t-51.5 -22.5zM4 -365q-87 0 -166 33l19 88q65 -26 141 -26q61 0 99 45t38 116v1168h101v-1168q0 -113 -64.5 -184.5t-167.5 -71.5z" />
    <glyph glyph-name="k" unicode="k" horiz-adv-x="1052" 
d="M1024 1059l-475 -486l450 -573h-127l-393 504l-225 -228v-276h-100v1432h100v-1020l637 647h133z" />
    <glyph glyph-name="l" unicode="l" horiz-adv-x="411" 
d="M156 0v1432h100v-1432h-100z" />
    <glyph glyph-name="m" unicode="m" horiz-adv-x="1781" 
d="M1262 1083q161 0 262.5 -110.5t101.5 -284.5v-688h-100v674q0 138 -78 226.5t-199 88.5q-135 0 -221 -84.5t-86 -216.5v-688h-100v674q0 138 -78.5 226.5t-200.5 88.5q-135 0 -221 -84.5t-86 -216.5v-688h-100v1059h100v-158q36 84 121.5 133t200.5 49q116 0 204.5 -61
t128.5 -166q32 103 128.5 165t222.5 62z" />
    <glyph glyph-name="n" unicode="n" 
d="M606 1083q173 0 284 -111t111 -284v-688h-100v674q0 138 -86.5 226.5t-222.5 88.5q-142 0 -238 -89.5t-96 -223.5v-676h-100v1059h100v-182q41 94 135 150t213 56z" />
    <glyph glyph-name="o" unicode="o" horiz-adv-x="1292" 
d="M647 -25q-109 0 -210.5 45t-175.5 119.5t-118.5 177t-44.5 213.5q0 148 75 275.5t201.5 202.5t272.5 75q109 0 210.5 -44.5t175 -119t117.5 -176.5t44 -213t-44 -213.5t-117.5 -177.5t-175 -119.5t-210.5 -44.5zM647 70q180 0 312.5 136.5t132.5 323.5q0 91 -36 176
t-96 147t-142.5 99t-170.5 37q-181 0 -313.5 -136.5t-132.5 -322.5q0 -123 60.5 -229t163.5 -168.5t222 -62.5z" />
    <glyph glyph-name="p" unicode="p" horiz-adv-x="1267" 
d="M678 1083q130 0 240 -73t174.5 -200.5t64.5 -279.5t-64.5 -280t-174.5 -201.5t-240 -73.5q-134 0 -240 63t-168 177v-567h-100v1411h100v-213q62 112 168.5 174.5t239.5 62.5zM657 70q164 0 280 134t116 326q0 190 -116 324.5t-280 134.5q-169 0 -278 -129t-109 -330
q0 -202 109 -331t278 -129z" />
    <glyph glyph-name="q" unicode="q" horiz-adv-x="1267" 
d="M997 1059h101v-1411h-101v567q-62 -114 -167.5 -177t-239.5 -63q-130 0 -240 73.5t-174.5 201.5t-64.5 280t64.5 279.5t174.5 200.5t240 73q133 0 239 -62.5t168 -174.5v213zM610 70q169 0 278 129t109 331q0 201 -109 330t-278 129q-164 0 -279.5 -134t-115.5 -325
q0 -192 115.5 -326t279.5 -134z" />
    <glyph glyph-name="r" unicode="r" horiz-adv-x="737" 
d="M270 827q40 114 152.5 185t257.5 71v-94q-180 0 -295 -112t-115 -285v-592h-100v1059h100v-232z" />
    <glyph glyph-name="s" unicode="s" horiz-adv-x="1001" 
d="M530 -25q-113 0 -229 41.5t-209 116.5l58 76q191 -139 380 -139q115 0 194 54t79 132q0 86 -70 139.5t-223 98.5q-191 59 -271.5 128.5t-80.5 176.5q0 122 103.5 203t252.5 81q196 0 379 -118l-55 -78q-158 102 -324 102q-106 0 -181 -51t-75 -127q0 -75 68 -125
t233 -102q177 -56 260.5 -127t83.5 -189q0 -124 -109 -208.5t-264 -84.5z" />
    <glyph glyph-name="t" unicode="t" horiz-adv-x="743" 
d="M631 121l51 -78q-87 -68 -197 -68q-101 0 -165 76t-64 195v719h-180v94h180v291h100v-291h273v-94h-273v-719q0 -76 38.5 -126t97.5 -50q78 0 139 51z" />
    <glyph glyph-name="u" unicode="u" 
d="M899 1059h100v-1059h-100v182q-42 -94 -135.5 -150.5t-212.5 -56.5q-173 0 -284 111.5t-111 284.5v688h100v-674q0 -138 86.5 -226.5t222.5 -88.5q142 0 238 89.5t96 223.5v676z" />
    <glyph glyph-name="v" unicode="v" horiz-adv-x="1134" 
d="M528 0l-473 1059h111l403 -916l400 916h110l-471 -1059h-80z" />
    <glyph glyph-name="w" unicode="w" horiz-adv-x="1650" 
d="M420 0l-348 1059h104l301 -926l307 926h86l310 -926l299 926h104l-350 -1059h-111l-295 897l-297 -897h-110z" />
    <glyph glyph-name="x" unicode="x" horiz-adv-x="1069" 
d="M1004 0h-121l-348 461l-349 -461h-120l409 541l-393 518h121l332 -438l331 438h121l-391 -518z" />
    <glyph glyph-name="y" unicode="y" horiz-adv-x="1179" 
d="M279 -369q-96 0 -168 35l24 94q72 -32 141 -32q133 0 191 98l61 143l-467 1090h111l410 -965l393 965h108l-493 -1202q-91 -223 -311 -226z" />
    <glyph glyph-name="z" unicode="z" horiz-adv-x="1052" 
d="M111 0v82l698 879h-686v98h819v-82l-698 -879h702v-98h-835z" />
    <glyph glyph-name="braceleft" unicode="{" horiz-adv-x="804" 
d="M700 -340q-214 25 -302.5 104.5t-88.5 241.5v289q0 111 -51 159t-170 48v86q119 0 170 48.5t51 158.5v286q0 162 88.5 241.5t302.5 104.5l11 -84q-174 -22 -242 -81.5t-68 -188.5l2 -295q0 -100 -35 -155t-112 -78q77 -25 112 -80.5t35 -155.5l-2 -293q0 -130 68.5 -190
t241.5 -82z" />
    <glyph glyph-name="bar" unicode="|" horiz-adv-x="536" 
d="M223 -152v1674h90v-1674h-90z" />
    <glyph glyph-name="braceright" unicode="}" horiz-adv-x="804" 
d="M104 -340l-10 84q173 22 241 81.5t68 190.5l-2 293q0 101 34.5 156t111.5 80q-76 24 -111 78.5t-35 154.5l2 295q0 130 -67.5 189t-241.5 81l10 84q214 -25 303 -104.5t89 -241.5v-286q0 -110 51 -158.5t170 -48.5v-86q-119 0 -170 -48t-51 -159v-289q0 -162 -89 -241.5
t-303 -104.5z" />
    <glyph glyph-name="asciitilde" unicode="~" horiz-adv-x="919" 
d="M592 629q-41 0 -80.5 21t-65.5 46.5t-58 46.5t-60 21q-40 0 -68.5 -40t-40.5 -114l-82 15q15 109 65 169t126 60q41 0 80.5 -21t65.5 -46.5t58 -46.5t60 -21q40 0 68 39.5t40 113.5l82 -14q-15 -110 -64 -169.5t-126 -59.5z" />
    <glyph glyph-name="exclamdown" unicode="&#xa1;" horiz-adv-x="493" 
d="M244 1083q34 0 57 -23.5t23 -55.5q0 -30 -23.5 -53t-56.5 -23q-30 0 -53 23t-23 53q0 32 22.5 55.5t53.5 23.5zM287 664l14 -1012h-113l15 1012h84z" />
    <glyph glyph-name="cent" unicode="&#xa2;" horiz-adv-x="1083" 
d="M1004 133q-69 -70 -159 -112t-188 -46v-127h-102v134q-201 26 -329 178.5t-128 369.5q0 216 128.5 368.5t328.5 178.5v129h102v-123q97 -4 186 -45t158 -110l-71 -70q-53 56 -124.5 90.5t-148.5 40.5v-919q159 12 277 133zM201 530q0 -176 99 -301t255 -153v907
q-156 -28 -255 -153.5t-99 -299.5z" />
    <glyph glyph-name="sterling" unicode="&#xa3;" horiz-adv-x="1200" 
d="M322 100h784v-100h-993v51l106 49v457h-104v94h104v297q0 212 120.5 348t309.5 136q142 0 255.5 -65.5t166.5 -176.5l-72 -68q-41 98 -135.5 154.5t-214.5 56.5q-144 0 -235.5 -108t-91.5 -277v-297h430v-94h-430v-457z" />
    <glyph glyph-name="yen" unicode="&#xa5;" horiz-adv-x="1320" 
d="M1284 1407l-516 -754h373v-94h-428v-207h428v-94h-428v-258h-105v258h-428v94h428v207h-428v94h373l-516 754h129l496 -729l495 729h127z" />
    <glyph glyph-name="dieresis" unicode="&#xa8;" horiz-adv-x="839" 
d="M223 1245q-30 0 -50.5 21t-20.5 51t20.5 51t50.5 21q29 0 50.5 -21.5t21.5 -50.5t-21.5 -50.5t-50.5 -21.5zM616 1245q-30 0 -50.5 21t-20.5 51t20.5 51t50.5 21q29 0 50.5 -21.5t21.5 -50.5t-21.5 -50.5t-50.5 -21.5z" />
    <glyph glyph-name="macron" unicode="&#xaf;" horiz-adv-x="892" 
d="M129 1229v86h635v-86h-635z" />
    <glyph glyph-name="acute" unicode="&#xb4;" horiz-adv-x="620" 
d="M129 1180l254 293l109 -25l-259 -268h-104z" />
    <glyph glyph-name="cedilla" unicode="&#xb8;" horiz-adv-x="620" 
d="M354 -92q61 0 99.5 -37t38.5 -96q0 -70 -56.5 -119t-136.5 -49q-93 0 -170 57l33 74q61 -49 135 -49q46 0 78.5 26.5t32.5 63.5q0 31 -22.5 51t-61.5 20q-41 0 -70 -22l-33 35l68 160h88l-49 -117q8 2 26 2z" />
    <glyph glyph-name="questiondown" unicode="&#xbf;" horiz-adv-x="1009" 
d="M549 1083q33 0 56.5 -23.5t23.5 -55.5q0 -30 -23.5 -53t-56.5 -23q-30 0 -53 23t-23 53q0 32 22.5 55.5t53.5 23.5zM602 664v-351q-179 -13 -294 -98t-115 -201q0 -118 88.5 -203t216.5 -85q235 0 387 206l69 -69q-190 -236 -460 -236q-169 0 -286.5 111t-117.5 266
q0 139 115 248t295 143v269h102z" />
    <glyph glyph-name="Agrave" unicode="&#xc0;" horiz-adv-x="1484" 
d="M799 1528h-105l-258 268l111 25zM1307 0l-154 346h-821l-154 -346h-112l620 1407h113l620 -1407h-112zM375 444h735l-367 836z" />
    <glyph glyph-name="Aacute" unicode="&#xc1;" horiz-adv-x="1484" 
d="M1051 1796l-258 -268h-105l254 293zM1307 0l-154 346h-821l-154 -346h-112l620 1407h113l620 -1407h-112zM375 444h735l-367 836z" />
    <glyph glyph-name="Acircumflex" unicode="&#xc2;" horiz-adv-x="1484" 
d="M741 1731l-168 -203h-98l213 280h109l217 -280h-101zM1307 0l-154 346h-821l-154 -346h-112l620 1407h113l620 -1407h-112zM375 444h735l-367 836z" />
    <glyph glyph-name="Atilde" unicode="&#xc3;" horiz-adv-x="1484" 
d="M608 1675q-40 0 -68 -39.5t-40 -113.5l-82 14q15 109 64.5 169t125.5 60q41 0 80.5 -21t65.5 -46.5t58 -46.5t60 -21q40 0 68.5 40t40.5 114l82 -15q-15 -110 -64.5 -169.5t-126.5 -59.5q-41 0 -80.5 21t-65.5 46.5t-58 46.5t-60 21zM1307 0l-154 346h-821l-154 -346
h-112l620 1407h113l620 -1407h-112zM375 444h735l-367 836z" />
    <glyph glyph-name="Adieresis" unicode="&#xc4;" horiz-adv-x="1484" 
d="M545 1593q-30 0 -51 21t-21 51t21 51t51 21q29 0 50 -21.5t21 -50.5t-21 -50.5t-50 -21.5zM938 1593q-30 0 -51 21t-21 51t21 51t51 21q29 0 50.5 -21.5t21.5 -50.5t-21.5 -50.5t-50.5 -21.5zM1307 0l-154 346h-821l-154 -346h-112l620 1407h113l620 -1407h-112zM375 444
h735l-367 836z" />
    <glyph glyph-name="Aring" unicode="&#xc5;" horiz-adv-x="1484" 
d="M741 1554q-86 0 -148.5 62.5t-62.5 148.5t62.5 148.5t148.5 62.5t148.5 -62.5t62.5 -148.5t-62.5 -148.5t-148.5 -62.5zM741 1901q-54 0 -94.5 -41t-40.5 -95t40.5 -94.5t94.5 -40.5t95 40.5t41 94.5t-41 95t-95 41zM1307 0l-154 346h-821l-154 -346h-112l620 1407h113
l620 -1407h-112zM375 444h735l-367 836z" />
    <glyph glyph-name="AE" unicode="&#xc6;" horiz-adv-x="2002" 
d="M1890 1307h-850v-541h781v-98h-781v-568h850v-100h-952v346h-555l-199 -346h-118l813 1407h1011v-100zM440 444h498v863z" />
    <glyph glyph-name="Ccedilla" unicode="&#xc7;" horiz-adv-x="1392" 
d="M1333 190q-95 -95 -216 -151t-253 -62l-28 -71q8 2 26 2q61 0 99 -37t38 -96q0 -70 -56 -119t-136 -49q-93 0 -170 57l33 74q61 -49 135 -49q46 0 78 26.5t32 63.5q0 31 -22.5 51t-61.5 20q-40 0 -69 -22l-33 35l49 114q-182 13 -336.5 114.5t-245 264.5t-90.5 349
q0 145 58 279.5t155.5 232.5t230.5 156.5t277 58.5t275 -56.5t231 -158.5l-71 -72q-86 89 -198.5 138.5t-236.5 49.5t-238 -50.5t-197.5 -135.5t-133 -201t-49.5 -241q0 -168 84 -313.5t226.5 -231.5t307.5 -86q124 0 236.5 49.5t198.5 138.5z" />
    <glyph glyph-name="Egrave" unicode="&#xc8;" horiz-adv-x="1226" 
d="M784 1528h-104l-258 268l110 25zM1114 1307h-850v-541h780v-98h-780v-568h850v-100h-952v1407h952v-100z" />
    <glyph glyph-name="Eacute" unicode="&#xc9;" horiz-adv-x="1226" 
d="M848 1796l-258 -268h-105l254 293zM1114 1307h-850v-541h780v-98h-780v-568h850v-100h-952v1407h952v-100z" />
    <glyph glyph-name="Ecircumflex" unicode="&#xca;" horiz-adv-x="1226" 
d="M639 1731l-168 -203h-98l213 280h108l217 -280h-100zM1114 1307h-850v-541h780v-98h-780v-568h850v-100h-952v1407h952v-100z" />
    <glyph glyph-name="Edieresis" unicode="&#xcb;" horiz-adv-x="1226" 
d="M442 1593q-30 0 -50.5 21t-20.5 51t20.5 51t50.5 21q29 0 50.5 -21.5t21.5 -50.5t-21.5 -50.5t-50.5 -21.5zM836 1593q-30 0 -51 21t-21 51t21 51t51 21q29 0 50 -21.5t21 -50.5t-21 -50.5t-50 -21.5zM1114 1307h-850v-541h780v-98h-780v-568h850v-100h-952v1407h952
v-100z" />
    <glyph glyph-name="Igrave" unicode="&#xcc;" horiz-adv-x="425" 
d="M162 1528l-258 268l110 25l252 -293h-104zM162 0v1407h102v-1407h-102z" />
    <glyph glyph-name="Iacute" unicode="&#xcd;" horiz-adv-x="425" 
d="M158 1528l254 293l108 -25l-258 -268h-104zM162 0v1407h102v-1407h-102z" />
    <glyph glyph-name="Icircumflex" unicode="&#xce;" horiz-adv-x="425" 
d="M-53 1528l213 280h108l217 -280h-100l-172 203l-168 -203h-98zM162 0v1407h102v-1407h-102z" />
    <glyph glyph-name="Idieresis" unicode="&#xcf;" horiz-adv-x="425" 
d="M16 1593q-30 0 -50.5 21t-20.5 51t20.5 51t50.5 21q29 0 50.5 -21.5t21.5 -50.5t-21.5 -50.5t-50.5 -21.5zM410 1593q-30 0 -51 21t-21 51t21 51t51 21q29 0 50 -21.5t21 -50.5t-21 -50.5t-50 -21.5zM162 0v1407h102v-1407h-102z" />
    <glyph glyph-name="Eth" unicode="&#xd0;" horiz-adv-x="1593" 
d="M727 1407q213 0 380.5 -89t261 -249.5t93.5 -363.5q0 -204 -93.5 -364.5t-261.5 -250.5t-380 -90h-479v668h-162v98h162v641h479zM727 98q183 0 327 77.5t224 216t80 313.5t-80 313t-224 214.5t-327 76.5h-377v-543h451l-2 -98h-449v-570h377z" />
    <glyph glyph-name="Ntilde" unicode="&#xd1;" horiz-adv-x="1519" 
d="M891 1540q-41 0 -80.5 21t-65.5 46.5t-58 46.5t-60 21q-40 0 -68.5 -39.5t-40.5 -113.5l-82 14q15 109 65 169t126 60q41 0 80.5 -21t65.5 -46.5t58 -46.5t60 -21q40 0 68 39.5t40 114.5l82 -15q-15 -110 -64 -169.5t-126 -59.5zM193 0v1407h102l930 -1243v1243h102
v-1407h-102l-930 1243v-1243h-102z" />
    <glyph glyph-name="Ograve" unicode="&#xd2;" horiz-adv-x="1652" 
d="M780 1528l-258 268l111 25l252 -293h-105zM827 -25q-192 0 -358.5 99.5t-264.5 268t-98 362.5q0 145 58 279.5t155.5 232.5t230.5 156.5t277 58.5t277 -58.5t229.5 -156.5t154.5 -232.5t58 -279.5q0 -194 -97.5 -362.5t-263.5 -268t-358 -99.5zM827 74q123 0 237 51
t197 136t133 201.5t50 242.5q0 167 -84 312t-226.5 230.5t-306.5 85.5q-124 0 -238 -50.5t-197.5 -135.5t-133 -201t-49.5 -241q0 -168 84 -313.5t226.5 -231.5t307.5 -86z" />
    <glyph glyph-name="Oacute" unicode="&#xd3;" horiz-adv-x="1652" 
d="M772 1528l254 293l109 -25l-258 -268h-105zM827 -25q-192 0 -358.5 99.5t-264.5 268t-98 362.5q0 145 58 279.5t155.5 232.5t230.5 156.5t277 58.5t277 -58.5t229.5 -156.5t154.5 -232.5t58 -279.5q0 -194 -97.5 -362.5t-263.5 -268t-358 -99.5zM827 74q123 0 237 51
t197 136t133 201.5t50 242.5q0 167 -84 312t-226.5 230.5t-306.5 85.5q-124 0 -238 -50.5t-197.5 -135.5t-133 -201t-49.5 -241q0 -168 84 -313.5t226.5 -231.5t307.5 -86z" />
    <glyph glyph-name="Ocircumflex" unicode="&#xd4;" horiz-adv-x="1652" 
d="M561 1528l213 280h109l217 -280h-101l-172 203l-168 -203h-98zM827 -25q-192 0 -358.5 99.5t-264.5 268t-98 362.5q0 145 58 279.5t155.5 232.5t230.5 156.5t277 58.5t277 -58.5t229.5 -156.5t154.5 -232.5t58 -279.5q0 -194 -97.5 -362.5t-263.5 -268t-358 -99.5z
M827 74q123 0 237 51t197 136t133 201.5t50 242.5q0 167 -84 312t-226.5 230.5t-306.5 85.5q-124 0 -238 -50.5t-197.5 -135.5t-133 -201t-49.5 -241q0 -168 84 -313.5t226.5 -231.5t307.5 -86z" />
    <glyph glyph-name="Otilde" unicode="&#xd5;" horiz-adv-x="1652" 
d="M958 1540q-41 0 -80.5 21t-65.5 46.5t-58 46.5t-60 21q-40 0 -68 -39.5t-40 -113.5l-82 14q15 109 64.5 169t125.5 60q41 0 80.5 -21t65.5 -46.5t58 -46.5t60 -21q40 0 68.5 40t40.5 114l82 -15q-15 -110 -64.5 -169.5t-126.5 -59.5zM827 -25q-192 0 -358.5 99.5
t-264.5 268t-98 362.5q0 145 58 279.5t155.5 232.5t230.5 156.5t277 58.5t277 -58.5t229.5 -156.5t154.5 -232.5t58 -279.5q0 -194 -97.5 -362.5t-263.5 -268t-358 -99.5zM827 74q123 0 237 51t197 136t133 201.5t50 242.5q0 167 -84 312t-226.5 230.5t-306.5 85.5
q-124 0 -238 -50.5t-197.5 -135.5t-133 -201t-49.5 -241q0 -168 84 -313.5t226.5 -231.5t307.5 -86z" />
    <glyph glyph-name="Odieresis" unicode="&#xd6;" horiz-adv-x="1652" 
d="M631 1593q-30 0 -51 21t-21 51t21 51t51 21q29 0 50 -21.5t21 -50.5t-21 -50.5t-50 -21.5zM1024 1593q-30 0 -51 21t-21 51t21 51t51 21q29 0 50.5 -21.5t21.5 -50.5t-21.5 -50.5t-50.5 -21.5zM827 -25q-192 0 -358.5 99.5t-264.5 268t-98 362.5q0 145 58 279.5
t155.5 232.5t230.5 156.5t277 58.5t277 -58.5t229.5 -156.5t154.5 -232.5t58 -279.5q0 -194 -97.5 -362.5t-263.5 -268t-358 -99.5zM827 74q123 0 237 51t197 136t133 201.5t50 242.5q0 167 -84 312t-226.5 230.5t-306.5 85.5q-124 0 -238 -50.5t-197.5 -135.5t-133 -201
t-49.5 -241q0 -168 84 -313.5t226.5 -231.5t307.5 -86z" />
    <glyph glyph-name="multiply" unicode="&#xd7;" horiz-adv-x="1073" 
d="M905 981l-297 -297l295 -295l-69 -72l-297 297l-297 -297l-70 70l297 297l-299 297l72 72l297 -297l297 297z" />
    <glyph glyph-name="Oslash" unicode="&#xd8;" horiz-adv-x="1652" 
d="M1335 1214q100 -102 155.5 -233t55.5 -276q0 -194 -97.5 -362.5t-263.5 -268t-358 -99.5q-242 0 -438 156l-115 -131h-122l167 193q-100 102 -156.5 234.5t-56.5 277.5t58 279.5t155.5 232.5t230.5 156.5t277 58.5q241 0 441 -156l114 131h123zM209 705
q0 -124 46.5 -237.5t129.5 -199.5l817 932q-165 133 -375 133q-124 0 -238 -50.5t-197.5 -135.5t-133 -201t-49.5 -241zM827 74q123 0 237 51t197 136t133 201.5t50 242.5q0 122 -46 233.5t-128 198.5l-815 -932q166 -131 372 -131z" />
    <glyph glyph-name="Ugrave" unicode="&#xd9;" horiz-adv-x="1470" 
d="M776 1528l-258 268l111 25l252 -293h-105zM735 -25q-246 0 -402.5 163.5t-156.5 418.5v850h103v-850q0 -212 127.5 -347.5t328.5 -135.5t329 135.5t128 347.5v850h102v-850q0 -255 -156.5 -418.5t-402.5 -163.5z" />
    <glyph glyph-name="Uacute" unicode="&#xda;" horiz-adv-x="1470" 
d="M582 1528l254 293l108 -25l-258 -268h-104zM735 -25q-246 0 -402.5 163.5t-156.5 418.5v850h103v-850q0 -212 127.5 -347.5t328.5 -135.5t329 135.5t128 347.5v850h102v-850q0 -255 -156.5 -418.5t-402.5 -163.5z" />
    <glyph glyph-name="Ucircumflex" unicode="&#xdb;" horiz-adv-x="1470" 
d="M469 1528l213 280h109l217 -280h-101l-172 203l-168 -203h-98zM735 -25q-246 0 -402.5 163.5t-156.5 418.5v850h103v-850q0 -212 127.5 -347.5t328.5 -135.5t329 135.5t128 347.5v850h102v-850q0 -255 -156.5 -418.5t-402.5 -163.5z" />
    <glyph glyph-name="Udieresis" unicode="&#xdc;" horiz-adv-x="1470" 
d="M539 1593q-30 0 -51 21t-21 51t21 51t51 21q29 0 50 -21.5t21 -50.5t-21 -50.5t-50 -21.5zM932 1593q-30 0 -51 21t-21 51t21 51t51 21q29 0 50.5 -21.5t21.5 -50.5t-21.5 -50.5t-50.5 -21.5zM735 -25q-246 0 -402.5 163.5t-156.5 418.5v850h103v-850
q0 -212 127.5 -347.5t328.5 -135.5t329 135.5t128 347.5v850h102v-850q0 -255 -156.5 -418.5t-402.5 -163.5z" />
    <glyph glyph-name="Yacute" unicode="&#xdd;" horiz-adv-x="1320" 
d="M508 1528l254 293l108 -25l-258 -268h-104zM608 0v571l-571 836h129l496 -729l495 729h127l-571 -836v-571h-105z" />
    <glyph glyph-name="Thorn" unicode="&#xde;" horiz-adv-x="1312" 
d="M162 0v1407h104v-262h482q216 0 356.5 -122.5t140.5 -313.5t-140.5 -314t-356.5 -123h-484v-272h-102zM264 371h463q184 0 299 93t115 245t-115 245t-299 93h-463v-676z" />
    <glyph glyph-name="germandbls" unicode="&#xdf;" horiz-adv-x="1122" 
d="M172 0v1073q0 157 116 266t283 109t282.5 -108.5t115.5 -264.5q0 -108 -51 -196t-136 -131q110 -51 176 -148.5t66 -210.5q0 -163 -113 -276t-276 -113h-193v98h152q137 0 232.5 89t95.5 216q0 126 -93 206.5t-239 80.5h-148v98h131q127 0 210 78t83 195q0 121 -86 205
t-209 84q-125 0 -211 -85t-86 -208v-1057h-102z" />
    <glyph glyph-name="agrave" unicode="&#xe0;" horiz-adv-x="1146" 
d="M739 1180h-104l-258 268l110 25zM575 1083q194 0 304 -121t110 -317v-645h-100v170q-58 -91 -171.5 -143t-232.5 -52q-168 0 -275.5 94t-107.5 246q0 155 118.5 253t303.5 98q165 0 365 -70v49q0 66 -17 124.5t-53 110t-101 81.5t-153 30q-152 0 -319 -94l-41 84
q188 102 370 102zM500 70q128 0 244 69.5t145 192.5v178q-187 63 -350 63q-148 0 -243 -72t-95 -184q0 -109 85.5 -178t213.5 -69z" />
    <glyph glyph-name="aacute" unicode="&#xe1;" horiz-adv-x="1146" 
d="M803 1448l-258 -268h-105l254 293zM575 1083q194 0 304 -121t110 -317v-645h-100v170q-58 -91 -171.5 -143t-232.5 -52q-168 0 -275.5 94t-107.5 246q0 155 118.5 253t303.5 98q165 0 365 -70v49q0 66 -17 124.5t-53 110t-101 81.5t-153 30q-152 0 -319 -94l-41 84
q188 102 370 102zM500 70q128 0 244 69.5t145 192.5v178q-187 63 -350 63q-148 0 -243 -72t-95 -184q0 -109 85.5 -178t213.5 -69z" />
    <glyph glyph-name="acircumflex" unicode="&#xe2;" horiz-adv-x="1146" 
d="M594 1382l-168 -202h-98l213 280h108l217 -280h-100zM575 1083q194 0 304 -121t110 -317v-645h-100v170q-58 -91 -171.5 -143t-232.5 -52q-168 0 -275.5 94t-107.5 246q0 155 118.5 253t303.5 98q165 0 365 -70v49q0 66 -17 124.5t-53 110t-101 81.5t-153 30
q-152 0 -319 -94l-41 84q188 102 370 102zM500 70q128 0 244 69.5t145 192.5v178q-187 63 -350 63q-148 0 -243 -72t-95 -184q0 -109 85.5 -178t213.5 -69z" />
    <glyph glyph-name="atilde" unicode="&#xe3;" horiz-adv-x="1146" 
d="M461 1327q-40 0 -68.5 -39.5t-40.5 -113.5l-82 14q15 109 65 169t126 60q41 0 80.5 -21t65.5 -46.5t58 -46.5t60 -21q40 0 68.5 40t40.5 114l81 -15q-15 -110 -64 -169.5t-126 -59.5q-41 0 -80.5 21t-65.5 46.5t-58 46.5t-60 21zM575 1083q194 0 304 -121t110 -317v-645
h-100v170q-58 -91 -171.5 -143t-232.5 -52q-168 0 -275.5 94t-107.5 246q0 155 118.5 253t303.5 98q165 0 365 -70v49q0 66 -17 124.5t-53 110t-101 81.5t-153 30q-152 0 -319 -94l-41 84q188 102 370 102zM500 70q128 0 244 69.5t145 192.5v178q-187 63 -350 63
q-148 0 -243 -72t-95 -184q0 -109 85.5 -178t213.5 -69z" />
    <glyph glyph-name="adieresis" unicode="&#xe4;" horiz-adv-x="1146" 
d="M397 1245q-30 0 -50.5 21t-20.5 51t20.5 51t50.5 21q29 0 50.5 -21.5t21.5 -50.5t-21.5 -50.5t-50.5 -21.5zM791 1245q-30 0 -51 21t-21 51t21 51t51 21q29 0 50 -21.5t21 -50.5t-21 -50.5t-50 -21.5zM575 1083q194 0 304 -121t110 -317v-645h-100v170
q-58 -91 -171.5 -143t-232.5 -52q-168 0 -275.5 94t-107.5 246q0 155 118.5 253t303.5 98q165 0 365 -70v49q0 66 -17 124.5t-53 110t-101 81.5t-153 30q-152 0 -319 -94l-41 84q188 102 370 102zM500 70q128 0 244 69.5t145 192.5v178q-187 63 -350 63q-148 0 -243 -72
t-95 -184q0 -109 85.5 -178t213.5 -69z" />
    <glyph glyph-name="aring" unicode="&#xe5;" horiz-adv-x="1146" 
d="M594 1206q-86 0 -148.5 62.5t-62.5 148.5t62.5 148.5t148.5 62.5t148.5 -62.5t62.5 -148.5t-62.5 -148.5t-148.5 -62.5zM594 1552q-54 0 -94.5 -40.5t-40.5 -94.5t40.5 -94.5t94.5 -40.5t94.5 40.5t40.5 94.5t-40.5 94.5t-94.5 40.5zM575 1083q194 0 304 -121t110 -317
v-645h-100v170q-58 -91 -171.5 -143t-232.5 -52q-168 0 -275.5 94t-107.5 246q0 155 118.5 253t303.5 98q165 0 365 -70v49q0 66 -17 124.5t-53 110t-101 81.5t-153 30q-152 0 -319 -94l-41 84q188 102 370 102zM500 70q128 0 244 69.5t145 192.5v178q-187 63 -350 63
q-148 0 -243 -72t-95 -184q0 -109 85.5 -178t213.5 -69z" />
    <glyph glyph-name="ae" unicode="&#xe6;" horiz-adv-x="2009" 
d="M1413 70q110 0 212 37t161 102l65 -70q-67 -73 -190 -118.5t-246 -45.5q-143 0 -267 78.5t-192 208.5q-53 -131 -173.5 -209t-276.5 -78q-182 0 -293 93t-111 247q0 155 118.5 253t303.5 98q165 0 365 -70v49q0 66 -17 124.5t-53 110t-101 81.5t-153 30q-152 0 -319 -94
l-41 84q188 102 370 102q146 0 246.5 -70.5t141.5 -193.5q68 122 186.5 193t259.5 71q231 0 367.5 -163t136.5 -433h-922q15 -176 135.5 -296.5t286.5 -120.5zM1411 989q-166 0 -284.5 -115t-135.5 -292h821q-11 183 -118 295t-283 112zM520 70q158 0 263.5 103.5
t105.5 260.5v76q-187 63 -350 63q-148 0 -243 -72t-95 -184q0 -110 88.5 -178.5t230.5 -68.5z" />
    <glyph glyph-name="ccedilla" unicode="&#xe7;" horiz-adv-x="1083" 
d="M1004 133q-143 -146 -345 -158l-28 -69q8 2 26 2q61 0 99.5 -37t38.5 -96q0 -70 -56.5 -119t-136.5 -49q-93 0 -170 57l33 74q61 -49 135 -49q46 0 78.5 26.5t32.5 63.5q0 31 -22.5 51t-61.5 20q-41 0 -70 -22l-33 35l49 117q-207 22 -341 175.5t-134 374.5
q0 155 69.5 282t192.5 199t273 72q104 0 199.5 -41t168.5 -114l-71 -70q-58 61 -135 96t-162 35q-186 0 -309 -131t-123 -328q0 -198 123 -329t309 -131q171 0 301 133z" />
    <glyph glyph-name="egrave" unicode="&#xe8;" horiz-adv-x="1218" 
d="M764 1180h-105l-258 268l111 25zM623 70q110 0 211.5 37t160.5 102l66 -70q-67 -73 -190 -118.5t-246 -45.5q-105 0 -201.5 43.5t-168 117.5t-114.5 178t-43 218q0 153 69.5 279.5t188.5 199t262 72.5q231 0 367.5 -163t136.5 -433h-921q15 -176 135.5 -296.5
t286.5 -120.5zM621 989q-166 0 -284.5 -115t-135.5 -292h821q-11 183 -118 295t-283 112z" />
    <glyph glyph-name="eacute" unicode="&#xe9;" horiz-adv-x="1218" 
d="M827 1448l-258 -268h-104l254 293zM623 70q110 0 211.5 37t160.5 102l66 -70q-67 -73 -190 -118.5t-246 -45.5q-105 0 -201.5 43.5t-168 117.5t-114.5 178t-43 218q0 153 69.5 279.5t188.5 199t262 72.5q231 0 367.5 -163t136.5 -433h-921q15 -176 135.5 -296.5
t286.5 -120.5zM621 989q-166 0 -284.5 -115t-135.5 -292h821q-11 183 -118 295t-283 112z" />
    <glyph glyph-name="ecircumflex" unicode="&#xea;" horiz-adv-x="1218" 
d="M618 1382l-167 -202h-99l213 280h109l217 -280h-100zM623 70q110 0 211.5 37t160.5 102l66 -70q-67 -73 -190 -118.5t-246 -45.5q-105 0 -201.5 43.5t-168 117.5t-114.5 178t-43 218q0 153 69.5 279.5t188.5 199t262 72.5q231 0 367.5 -163t136.5 -433h-921
q15 -176 135.5 -296.5t286.5 -120.5zM621 989q-166 0 -284.5 -115t-135.5 -292h821q-11 183 -118 295t-283 112z" />
    <glyph glyph-name="edieresis" unicode="&#xeb;" horiz-adv-x="1218" 
d="M422 1245q-30 0 -51 21t-21 51t21 51t51 21q29 0 50.5 -21.5t21.5 -50.5t-21.5 -50.5t-50.5 -21.5zM815 1245q-30 0 -51 21t-21 51t21 51t51 21q29 0 50.5 -21.5t21.5 -50.5t-21.5 -50.5t-50.5 -21.5zM623 70q110 0 211.5 37t160.5 102l66 -70q-67 -73 -190 -118.5
t-246 -45.5q-105 0 -201.5 43.5t-168 117.5t-114.5 178t-43 218q0 153 69.5 279.5t188.5 199t262 72.5q231 0 367.5 -163t136.5 -433h-921q15 -176 135.5 -296.5t286.5 -120.5zM621 989q-166 0 -284.5 -115t-135.5 -292h821q-11 183 -118 295t-283 112z" />
    <glyph glyph-name="igrave" unicode="&#xec;" horiz-adv-x="407" 
d="M154 1180l-258 268l110 25l252 -293h-104zM154 0v1059h100v-1059h-100z" />
    <glyph glyph-name="iacute" unicode="&#xed;" horiz-adv-x="407" 
d="M147 1180l254 293l109 -25l-258 -268h-105zM154 0v1059h100v-1059h-100z" />
    <glyph glyph-name="icircumflex" unicode="&#xee;" horiz-adv-x="407" 
d="M-61 1180l213 280h108l217 -280h-100l-172 202l-168 -202h-98zM154 0v1059h100v-1059h-100z" />
    <glyph glyph-name="idieresis" unicode="&#xef;" horiz-adv-x="407" 
d="M8 1245q-30 0 -50.5 21t-20.5 51t20.5 51t50.5 21q29 0 50.5 -21.5t21.5 -50.5t-21.5 -50.5t-50.5 -21.5zM401 1245q-30 0 -50.5 21t-20.5 51t20.5 51t50.5 21q29 0 50.5 -21.5t21.5 -50.5t-21.5 -50.5t-50.5 -21.5zM154 0v1059h100v-1059h-100z" />
    <glyph glyph-name="eth" unicode="&#xf0;" horiz-adv-x="1261" 
d="M760 1257q379 -346 379 -725q0 -245 -141.5 -401t-364.5 -156q-224 0 -367 149t-143 382q0 229 138.5 374.5t356.5 145.5q222 0 357 -176q-102 190 -307 367l-256 -115l-39 88l213 94q-96 74 -191 133l99 45q97 -63 184 -135l199 88l38 -88zM631 72q178 0 291.5 122
t113.5 314q0 185 -111.5 304.5t-293.5 119.5q-178 0 -292 -120t-114 -308q0 -190 113.5 -311t292.5 -121z" />
    <glyph glyph-name="ntilde" unicode="&#xf1;" 
d="M455 1327q-40 0 -68.5 -39.5t-40.5 -113.5l-82 14q15 109 65 169t126 60q41 0 80.5 -21t65.5 -46.5t58 -46.5t60 -21q40 0 68 39.5t40 114.5l82 -15q-15 -110 -64 -169.5t-126 -59.5q-41 0 -80.5 21t-65.5 46.5t-58 46.5t-60 21zM606 1083q173 0 284 -111t111 -284v-688
h-100v674q0 138 -86.5 226.5t-222.5 88.5q-142 0 -238 -89.5t-96 -223.5v-676h-100v1059h100v-182q41 94 135 150t213 56z" />
    <glyph glyph-name="ograve" unicode="&#xf2;" horiz-adv-x="1292" 
d="M688 1180l-258 268l111 25l252 -293h-105zM647 -25q-109 0 -210.5 45t-175.5 119.5t-118.5 177t-44.5 213.5q0 148 75 275.5t201.5 202.5t272.5 75q109 0 210.5 -44.5t175 -119t117.5 -176.5t44 -213t-44 -213.5t-117.5 -177.5t-175 -119.5t-210.5 -44.5zM647 70
q180 0 312.5 136.5t132.5 323.5q0 91 -36 176t-96 147t-142.5 99t-170.5 37q-181 0 -313.5 -136.5t-132.5 -322.5q0 -123 60.5 -229t163.5 -168.5t222 -62.5z" />
    <glyph glyph-name="oacute" unicode="&#xf3;" horiz-adv-x="1292" 
d="M494 1180l254 293l108 -25l-258 -268h-104zM647 -25q-109 0 -210.5 45t-175.5 119.5t-118.5 177t-44.5 213.5q0 148 75 275.5t201.5 202.5t272.5 75q109 0 210.5 -44.5t175 -119t117.5 -176.5t44 -213t-44 -213.5t-117.5 -177.5t-175 -119.5t-210.5 -44.5zM647 70
q180 0 312.5 136.5t132.5 323.5q0 91 -36 176t-96 147t-142.5 99t-170.5 37q-181 0 -313.5 -136.5t-132.5 -322.5q0 -123 60.5 -229t163.5 -168.5t222 -62.5z" />
    <glyph glyph-name="ocircumflex" unicode="&#xf4;" horiz-adv-x="1292" 
d="M381 1180l213 280h108l218 -280h-101l-172 202l-168 -202h-98zM647 -25q-109 0 -210.5 45t-175.5 119.5t-118.5 177t-44.5 213.5q0 148 75 275.5t201.5 202.5t272.5 75q109 0 210.5 -44.5t175 -119t117.5 -176.5t44 -213t-44 -213.5t-117.5 -177.5t-175 -119.5
t-210.5 -44.5zM647 70q180 0 312.5 136.5t132.5 323.5q0 91 -36 176t-96 147t-142.5 99t-170.5 37q-181 0 -313.5 -136.5t-132.5 -322.5q0 -123 60.5 -229t163.5 -168.5t222 -62.5z" />
    <glyph glyph-name="otilde" unicode="&#xf5;" horiz-adv-x="1292" 
d="M778 1192q-41 0 -80.5 21t-65.5 46.5t-58 46.5t-60 21q-40 0 -68 -39.5t-40 -113.5l-82 14q15 109 64.5 169t125.5 60q41 0 80.5 -21t65.5 -46.5t58 -46.5t60 -21q40 0 68.5 40t40.5 114l82 -15q-15 -110 -64.5 -169.5t-126.5 -59.5zM647 -25q-109 0 -210.5 45
t-175.5 119.5t-118.5 177t-44.5 213.5q0 148 75 275.5t201.5 202.5t272.5 75q109 0 210.5 -44.5t175 -119t117.5 -176.5t44 -213t-44 -213.5t-117.5 -177.5t-175 -119.5t-210.5 -44.5zM647 70q180 0 312.5 136.5t132.5 323.5q0 91 -36 176t-96 147t-142.5 99t-170.5 37
q-181 0 -313.5 -136.5t-132.5 -322.5q0 -123 60.5 -229t163.5 -168.5t222 -62.5z" />
    <glyph glyph-name="odieresis" unicode="&#xf6;" horiz-adv-x="1292" 
d="M451 1245q-30 0 -51 21t-21 51t21 51t51 21q29 0 50 -21.5t21 -50.5t-21 -50.5t-50 -21.5zM844 1245q-30 0 -51 21t-21 51t21 51t51 21q29 0 50 -21.5t21 -50.5t-21 -50.5t-50 -21.5zM647 -25q-109 0 -210.5 45t-175.5 119.5t-118.5 177t-44.5 213.5q0 148 75 275.5
t201.5 202.5t272.5 75q109 0 210.5 -44.5t175 -119t117.5 -176.5t44 -213t-44 -213.5t-117.5 -177.5t-175 -119.5t-210.5 -44.5zM647 70q180 0 312.5 136.5t132.5 323.5q0 91 -36 176t-96 147t-142.5 99t-170.5 37q-181 0 -313.5 -136.5t-132.5 -322.5q0 -123 60.5 -229
t163.5 -168.5t222 -62.5z" />
    <glyph glyph-name="divide" unicode="&#xf7;" horiz-adv-x="1214" 
d="M610 938q-33 0 -56.5 23.5t-23.5 56.5q0 30 23.5 53t56.5 23q30 0 53 -23t23 -53q0 -32 -22.5 -56t-53.5 -24zM137 635v98h940v-98h-940zM610 274q-33 0 -56.5 23.5t-23.5 56.5q0 30 23.5 53t56.5 23q30 0 53 -23t23 -53q0 -32 -22.5 -56t-53.5 -24z" />
    <glyph glyph-name="oslash" unicode="&#xf8;" horiz-adv-x="1292" 
d="M1038 913q74 -77 115 -176t41 -207q0 -111 -44 -213.5t-117.5 -177.5t-175 -119.5t-210.5 -44.5q-175 0 -317 107l-70 -82h-123l121 143q-75 77 -117.5 177t-42.5 210q0 148 75 275.5t201.5 202.5t272.5 75q179 0 322 -108l71 84h123zM201 530q0 -177 123 -313l581 684
q-118 88 -258 88q-181 0 -313.5 -136.5t-132.5 -322.5zM647 70q180 0 312.5 136.5t132.5 323.5q0 175 -117 308l-582 -682q117 -86 254 -86z" />
    <glyph glyph-name="ugrave" unicode="&#xf9;" 
d="M723 1180h-105l-258 268l111 25zM899 1059h100v-1059h-100v182q-42 -94 -135.5 -150.5t-212.5 -56.5q-173 0 -284 111.5t-111 284.5v688h100v-674q0 -138 86.5 -226.5t222.5 -88.5q142 0 238 89.5t96 223.5v676z" />
    <glyph glyph-name="uacute" unicode="&#xfa;" 
d="M786 1448l-258 -268h-104l254 293zM899 1059h100v-1059h-100v182q-42 -94 -135.5 -150.5t-212.5 -56.5q-173 0 -284 111.5t-111 284.5v688h100v-674q0 -138 86.5 -226.5t222.5 -88.5q142 0 238 89.5t96 223.5v676z" />
    <glyph glyph-name="ucircumflex" unicode="&#xfb;" 
d="M578 1382l-168 -202h-99l213 280h109l217 -280h-100zM899 1059h100v-1059h-100v182q-42 -94 -135.5 -150.5t-212.5 -56.5q-173 0 -284 111.5t-111 284.5v688h100v-674q0 -138 86.5 -226.5t222.5 -88.5q142 0 238 89.5t96 223.5v676z" />
    <glyph glyph-name="udieresis" unicode="&#xfc;" 
d="M381 1245q-30 0 -51 21t-21 51t21 51t51 21q29 0 50.5 -21.5t21.5 -50.5t-21.5 -50.5t-50.5 -21.5zM774 1245q-30 0 -51 21t-21 51t21 51t51 21q29 0 50.5 -21.5t21.5 -50.5t-21.5 -50.5t-50.5 -21.5zM899 1059h100v-1059h-100v182q-42 -94 -135.5 -150.5t-212.5 -56.5
q-173 0 -284 111.5t-111 284.5v688h100v-674q0 -138 86.5 -226.5t222.5 -88.5q142 0 238 89.5t96 223.5v676z" />
    <glyph glyph-name="yacute" unicode="&#xfd;" horiz-adv-x="1179" 
d="M428 1180l254 293l109 -25l-259 -268h-104zM279 -369q-96 0 -168 35l24 94q72 -32 141 -32q133 0 191 98l61 143l-467 1090h111l410 -965l393 965h108l-493 -1202q-91 -223 -311 -226z" />
    <glyph glyph-name="thorn" unicode="&#xfe;" horiz-adv-x="1267" 
d="M678 1083q130 0 240 -73t174.5 -200.5t64.5 -279.5t-64.5 -280t-174.5 -201.5t-240 -73.5q-134 0 -240 63t-168 177v-567h-100v1784h100v-586q62 112 168.5 174.5t239.5 62.5zM657 70q164 0 280 134t116 326q0 190 -116 324.5t-280 134.5q-169 0 -278 -129t-109 -330
q0 -202 109 -331t278 -129z" />
    <glyph glyph-name="ydieresis" unicode="&#xff;" horiz-adv-x="1179" 
d="M385 1245q-30 0 -51 21t-21 51t21 51t51 21q29 0 50.5 -21.5t21.5 -50.5t-21.5 -50.5t-50.5 -21.5zM778 1245q-30 0 -50.5 21t-20.5 51t20.5 51t50.5 21q29 0 50.5 -21.5t21.5 -50.5t-21.5 -50.5t-50.5 -21.5zM279 -369q-96 0 -168 35l24 94q72 -32 141 -32q133 0 191 98
l61 143l-467 1090h111l410 -965l393 965h108l-493 -1202q-91 -223 -311 -226z" />
    <glyph glyph-name="Amacron" unicode="&#x100;" horiz-adv-x="1484" 
d="M1059 1663v-86h-635v86h635zM1307 0l-154 346h-821l-154 -346h-112l620 1407h113l620 -1407h-112zM375 444h735l-367 836z" />
    <glyph glyph-name="amacron" unicode="&#x101;" horiz-adv-x="1146" 
d="M911 1315v-86h-635v86h635zM575 1083q194 0 304 -121t110 -317v-645h-100v170q-58 -91 -171.5 -143t-232.5 -52q-168 0 -275.5 94t-107.5 246q0 155 118.5 253t303.5 98q165 0 365 -70v49q0 66 -17 124.5t-53 110t-101 81.5t-153 30q-152 0 -319 -94l-41 84
q188 102 370 102zM500 70q128 0 244 69.5t145 192.5v178q-187 63 -350 63q-148 0 -243 -72t-95 -184q0 -109 85.5 -178t213.5 -69z" />
    <glyph glyph-name="Abreve" unicode="&#x102;" horiz-adv-x="1484" 
d="M1040 1677q-123 -123 -299 -123q-173 0 -299 123l68 68q46 -46 107 -71t124 -25t125 25.5t107 70.5zM1307 0l-154 346h-821l-154 -346h-112l620 1407h113l620 -1407h-112zM375 444h735l-367 836z" />
    <glyph glyph-name="abreve" unicode="&#x103;" horiz-adv-x="1146" 
d="M893 1329q-123 -123 -299 -123q-173 0 -299 123l67 68q46 -46 107.5 -71.5t124.5 -25.5t124 25.5t107 71.5zM575 1083q194 0 304 -121t110 -317v-645h-100v170q-58 -91 -171.5 -143t-232.5 -52q-168 0 -275.5 94t-107.5 246q0 155 118.5 253t303.5 98q165 0 365 -70v49
q0 66 -17 124.5t-53 110t-101 81.5t-153 30q-152 0 -319 -94l-41 84q188 102 370 102zM500 70q128 0 244 69.5t145 192.5v178q-187 63 -350 63q-148 0 -243 -72t-95 -184q0 -109 85.5 -178t213.5 -69z" />
    <glyph glyph-name="Aogonek" unicode="&#x104;" horiz-adv-x="1484" 
d="M1532 -221l49 -74q-72 -59 -172 -59q-93 0 -151 58t-58 151q0 55 26 99.5t70 68.5l-143 323h-821l-154 -346h-112l620 1407h113l620 -1407q-61 0 -96 -36t-35 -99q0 -61 34 -95t97 -34q73 0 113 43zM375 444h735l-367 836z" />
    <glyph glyph-name="aogonek" unicode="&#x105;" horiz-adv-x="1146" 
d="M1102 -221l49 -74q-72 -59 -172 -59q-93 0 -151 58t-58 151q0 62 33 110.5t86 67.5v137q-58 -91 -171.5 -143t-232.5 -52q-168 0 -275.5 94t-107.5 246q0 155 118.5 253t303.5 98q165 0 365 -70v49q0 66 -17 124.5t-53 110t-101 81.5t-153 30q-152 0 -319 -94l-41 84
q188 102 370 102q194 0 304 -121t110 -317v-645q-61 0 -96 -36t-35 -99q0 -61 34 -95t97 -34q73 0 113 43zM500 70q128 0 244 69.5t145 192.5v178q-187 63 -350 63q-148 0 -243 -72t-95 -184q0 -109 85.5 -178t213.5 -69z" />
    <glyph glyph-name="Cacute" unicode="&#x106;" horiz-adv-x="1392" 
d="M647 1528l254 293l109 -25l-258 -268h-105zM827 -25q-192 0 -358.5 99.5t-264.5 268t-98 362.5q0 145 58 279.5t155.5 232.5t230.5 156.5t277 58.5t275 -56.5t231 -158.5l-71 -72q-86 89 -198.5 138.5t-236.5 49.5t-238 -50.5t-197.5 -135.5t-133 -201t-49.5 -241
q0 -168 84 -313.5t226.5 -231.5t307.5 -86q124 0 236.5 49.5t198.5 138.5l71 -72q-101 -101 -232 -158t-274 -57z" />
    <glyph glyph-name="cacute" unicode="&#x107;" horiz-adv-x="1083" 
d="M442 1180l254 293l109 -25l-258 -268h-105zM633 -25q-113 0 -212 42.5t-170 116t-112 176.5t-41 220q0 155 69.5 282t192.5 199t273 72q104 0 199.5 -41t168.5 -114l-71 -70q-58 61 -135 96t-162 35q-186 0 -309 -131t-123 -328q0 -198 123 -329t309 -131q171 0 301 133
l70 -70q-73 -75 -169 -116.5t-202 -41.5z" />
    <glyph glyph-name="Ccaron" unicode="&#x10c;" horiz-adv-x="1392" 
d="M748 1528l-213 280h98l168 -202l172 202h100l-217 -280h-108zM827 -25q-192 0 -358.5 99.5t-264.5 268t-98 362.5q0 145 58 279.5t155.5 232.5t230.5 156.5t277 58.5t275 -56.5t231 -158.5l-71 -72q-86 89 -198.5 138.5t-236.5 49.5t-238 -50.5t-197.5 -135.5t-133 -201
t-49.5 -241q0 -168 84 -313.5t226.5 -231.5t307.5 -86q124 0 236.5 49.5t198.5 138.5l71 -72q-101 -101 -232 -158t-274 -57z" />
    <glyph glyph-name="ccaron" unicode="&#x10d;" horiz-adv-x="1083" 
d="M543 1180l-213 280h98l168 -203l172 203h100l-217 -280h-108zM633 -25q-113 0 -212 42.5t-170 116t-112 176.5t-41 220q0 155 69.5 282t192.5 199t273 72q104 0 199.5 -41t168.5 -114l-71 -70q-58 61 -135 96t-162 35q-186 0 -309 -131t-123 -328q0 -198 123 -329
t309 -131q171 0 301 133l70 -70q-73 -75 -169 -116.5t-202 -41.5z" />
    <glyph glyph-name="Dcaron" unicode="&#x10e;" horiz-adv-x="1538" 
d="M618 1528l-212 280h98l168 -202l172 202h100l-217 -280h-109zM193 0v1407h479q213 0 380.5 -89t261 -249.5t93.5 -363.5q0 -204 -93.5 -364.5t-261.5 -250.5t-380 -90h-479zM295 98h377q183 0 327 77.5t224 216t80 313.5t-80 313t-224 214.5t-327 76.5h-377v-1211z" />
    <glyph glyph-name="dcaron" unicode="&#x10f;" horiz-adv-x="1267" 
d="M997 846v586h101v-1432h-101v215q-62 -114 -167.5 -177t-239.5 -63q-130 0 -240 73.5t-174.5 201.5t-64.5 280t64.5 279.5t174.5 200.5t240 73q133 0 239 -62.5t168 -174.5zM1323 1432q37 0 58.5 -28t21.5 -77q0 -98 -123 -260l-57 41q78 90 100 180q-32 0 -53 20.5
t-21 51.5q0 29 21.5 50.5t52.5 21.5zM610 70q169 0 278 129t109 331q0 201 -109 330t-278 129q-164 0 -279.5 -134t-115.5 -325q0 -192 115.5 -326t279.5 -134z" />
    <glyph glyph-name="Dcroat" unicode="&#x110;" horiz-adv-x="1593" 
d="M727 1407q213 0 380.5 -89t261 -249.5t93.5 -363.5q0 -204 -93.5 -364.5t-261.5 -250.5t-380 -90h-479v668h-162v98h162v641h479zM727 98q183 0 327 77.5t224 216t80 313.5t-80 313t-224 214.5t-327 76.5h-377v-543h451l-2 -98h-449v-570h377z" />
    <glyph glyph-name="dcroat" unicode="&#x111;" horiz-adv-x="1304" 
d="M1229 1290v-82h-131v-1208h-101v215q-62 -114 -167.5 -177t-239.5 -63q-130 0 -240 73.5t-174.5 201.5t-64.5 280t64.5 279.5t174.5 200.5t240 73q133 0 239 -62.5t168 -174.5v362h-376v82h376v142h101v-142h131zM610 70q169 0 278 129t109 331q0 201 -109 330t-278 129
q-164 0 -279.5 -134t-115.5 -325q0 -192 115.5 -326t279.5 -134z" />
    <glyph glyph-name="Emacron" unicode="&#x112;" horiz-adv-x="1226" 
d="M956 1663v-86h-634v86h634zM1114 1307h-850v-541h780v-98h-780v-568h850v-100h-952v1407h952v-100z" />
    <glyph glyph-name="emacron" unicode="&#x113;" horiz-adv-x="1218" 
d="M936 1315v-86h-635v86h635zM623 70q110 0 211.5 37t160.5 102l66 -70q-67 -73 -190 -118.5t-246 -45.5q-105 0 -201.5 43.5t-168 117.5t-114.5 178t-43 218q0 153 69.5 279.5t188.5 199t262 72.5q231 0 367.5 -163t136.5 -433h-921q15 -176 135.5 -296.5t286.5 -120.5z
M621 989q-166 0 -284.5 -115t-135.5 -292h821q-11 183 -118 295t-283 112z" />
    <glyph glyph-name="Edotaccent" unicode="&#x116;" horiz-adv-x="1226" 
d="M639 1593q-30 0 -51 21t-21 51t21 51t51 21q29 0 51.5 -21.5t22.5 -50.5t-22.5 -50.5t-51.5 -21.5zM1114 1307h-850v-541h780v-98h-780v-568h850v-100h-952v1407h952v-100z" />
    <glyph glyph-name="edotaccent" unicode="&#x117;" horiz-adv-x="1218" 
d="M618 1245q-30 0 -50.5 21t-20.5 51t20.5 51t50.5 21q29 0 51.5 -21.5t22.5 -50.5t-22.5 -50.5t-51.5 -21.5zM623 70q110 0 211.5 37t160.5 102l66 -70q-67 -73 -190 -118.5t-246 -45.5q-105 0 -201.5 43.5t-168 117.5t-114.5 178t-43 218q0 153 69.5 279.5t188.5 199
t262 72.5q231 0 367.5 -163t136.5 -433h-921q15 -176 135.5 -296.5t286.5 -120.5zM621 989q-166 0 -284.5 -115t-135.5 -292h821q-11 183 -118 295t-283 112z" />
    <glyph glyph-name="Eogonek" unicode="&#x118;" horiz-adv-x="1226" 
d="M1114 1307h-850v-541h780v-98h-780v-568h850v-100h-162q-61 0 -96 -36t-35 -99q0 -61 34.5 -95t96.5 -34q73 0 113 43l49 -74q-72 -59 -172 -59q-93 0 -151 58t-58 151q0 88 64 145h-635v1407h952v-100z" />
    <glyph glyph-name="eogonek" unicode="&#x119;" horiz-adv-x="1218" 
d="M807 0q-39 -36 -39 -102q0 -60 34 -94.5t97 -34.5q73 0 113 43l49 -74q-73 -60 -172 -60q-93 0 -151 58t-58 151q0 51 22 93q-68 -5 -77 -5q-105 0 -201.5 43.5t-168 117.5t-114.5 178t-43 218q0 153 69.5 279.5t188.5 199t262 72.5q231 0 367.5 -163t136.5 -433h-921
q15 -176 135.5 -296.5t286.5 -120.5q110 0 211.5 37t160.5 102l66 -70q-85 -91 -254 -139zM621 989q-166 0 -284.5 -115t-135.5 -292h821q-11 183 -118 295t-283 112z" />
    <glyph glyph-name="Ecaron" unicode="&#x11a;" horiz-adv-x="1226" 
d="M694 1528h-108l-213 280h98l168 -202l172 202h100zM1114 1307h-850v-541h780v-98h-780v-568h850v-100h-952v1407h952v-100z" />
    <glyph glyph-name="ecaron" unicode="&#x11b;" horiz-adv-x="1218" 
d="M674 1180h-109l-213 280h99l167 -203l173 203h100zM623 70q110 0 211.5 37t160.5 102l66 -70q-67 -73 -190 -118.5t-246 -45.5q-105 0 -201.5 43.5t-168 117.5t-114.5 178t-43 218q0 153 69.5 279.5t188.5 199t262 72.5q231 0 367.5 -163t136.5 -433h-921
q15 -176 135.5 -296.5t286.5 -120.5zM621 989q-166 0 -284.5 -115t-135.5 -292h821q-11 183 -118 295t-283 112z" />
    <glyph glyph-name="Gbreve" unicode="&#x11e;" horiz-adv-x="1523" 
d="M1126 1677q-123 -123 -299 -123q-173 0 -299 123l68 68q46 -46 107 -71t124 -25t125 25.5t107 70.5zM809 612v101h563v-525q-105 -99 -249 -156t-296 -57q-192 0 -358.5 99.5t-264.5 268t-98 362.5q0 145 58 279.5t155.5 232.5t230.5 156.5t277 58.5q153 0 296.5 -56
t248.5 -155l-72 -72q-90 85 -216 134.5t-257 49.5q-124 0 -238 -50.5t-197.5 -135.5t-133 -201t-49.5 -241q0 -168 84 -313.5t226.5 -231.5t307.5 -86q121 0 238 41.5t205 115.5v381h-461z" />
    <glyph glyph-name="gbreve" unicode="&#x11f;" horiz-adv-x="1249" 
d="M911 1329q-123 -123 -299 -123q-173 0 -299 123l68 68q46 -46 107 -71.5t124 -25.5t124.5 25.5t107.5 71.5zM979 1059h100v-946q0 -204 -138 -334.5t-355 -130.5q-119 0 -237 39.5t-191 101.5l47 84q66 -58 168 -94.5t200 -36.5q183 0 294.5 102.5t111.5 268.5v217
q-59 -121 -171.5 -186.5t-252.5 -65.5q-129 0 -237.5 67t-171 183t-62.5 254q0 210 137 355.5t334 145.5q144 0 254 -65t170 -187v228zM575 172q173 0 288.5 115.5t115.5 294.5q0 177 -115.5 292t-288.5 115q-161 0 -274 -119t-113 -288q0 -170 113 -290t274 -120z" />
    <glyph glyph-name="Gcommaaccent" unicode="&#x122;" horiz-adv-x="1523" 
d="M809 612v101h563v-525q-105 -99 -249 -156t-296 -57q-192 0 -358.5 99.5t-264.5 268t-98 362.5q0 145 58 279.5t155.5 232.5t230.5 156.5t277 58.5q153 0 296.5 -56t248.5 -155l-72 -72q-90 85 -216 134.5t-257 49.5q-124 0 -238 -50.5t-197.5 -135.5t-133 -201
t-49.5 -241q0 -168 84 -313.5t226.5 -231.5t307.5 -86q121 0 238 41.5t205 115.5v381h-461zM823 -188q37 0 58.5 -28t21.5 -77q0 -98 -123 -260l-57 41q78 90 100 180q-32 0 -52.5 20.5t-20.5 51.5q0 30 21 51t52 21z" />
    <glyph glyph-name="gcommaaccent" unicode="&#x123;" horiz-adv-x="1249" 
d="M602 1245q-37 0 -58.5 28t-21.5 77q0 98 123 260l57 -41q-78 -90 -100 -180q32 0 53 -20.5t21 -51.5q0 -29 -21.5 -50.5t-52.5 -21.5zM979 1059h100v-946q0 -204 -138 -334.5t-355 -130.5q-119 0 -237 39.5t-191 101.5l47 84q66 -58 168 -94.5t200 -36.5
q183 0 294.5 102.5t111.5 268.5v217q-59 -121 -171.5 -186.5t-252.5 -65.5q-129 0 -237.5 67t-171 183t-62.5 254q0 210 137 355.5t334 145.5q144 0 254 -65t170 -187v228zM575 172q173 0 288.5 115.5t115.5 294.5q0 177 -115.5 292t-288.5 115q-161 0 -274 -119t-113 -288
q0 -170 113 -290t274 -120z" />
    <glyph glyph-name="Imacron" unicode="&#x12a;" horiz-adv-x="425" 
d="M-104 1577v86h634v-86h-634zM162 0v1407h102v-1407h-102z" />
    <glyph glyph-name="imacron" unicode="&#x12b;" horiz-adv-x="407" 
d="M-113 1229v86h635v-86h-635zM154 0v1059h100v-1059h-100z" />
    <glyph glyph-name="Iogonek" unicode="&#x12e;" horiz-adv-x="425" 
d="M377 -221l49 -74q-72 -59 -172 -59q-93 0 -151 58t-58 151q0 62 32 109.5t85 68.5v1374h102v-1407q-61 0 -96 -36t-35 -99q0 -61 34.5 -95t96.5 -34q73 0 113 43z" />
    <glyph glyph-name="iogonek" unicode="&#x12f;" horiz-adv-x="407" 
d="M205 1245q-30 0 -51 21t-21 51t21 51t51 21q29 0 51.5 -21.5t22.5 -50.5t-22.5 -50.5t-51.5 -21.5zM317 -221l50 -74q-72 -59 -172 -59q-93 0 -151 58t-58 151q0 70 41 122t104 64l23 -12v1030h100v-1059h-49q-61 0 -96 -36t-35 -99q0 -61 34 -95t97 -34q72 0 112 43z
" />
    <glyph glyph-name="Idotaccent" unicode="&#x130;" horiz-adv-x="425" 
d="M213 1593q-30 0 -51 21t-21 51t21 51t51 21q29 0 51.5 -21.5t22.5 -50.5t-22.5 -50.5t-51.5 -21.5zM162 0v1407h102v-1407h-102z" />
    <glyph glyph-name="dotlessi" unicode="&#x131;" horiz-adv-x="407" 
d="M154 0v1059h100v-1059h-100z" />
    <glyph glyph-name="Kcommaaccent" unicode="&#x136;" horiz-adv-x="1286" 
d="M188 0v1407h103v-846l776 846h135l-586 -639l629 -768h-131l-569 694l-254 -274v-420h-103zM629 -553l-58 41q79 92 101 180q-32 0 -53 20.5t-21 51.5q0 29 21.5 50.5t52.5 21.5q37 0 58.5 -28t21.5 -77q0 -98 -123 -260z" />
    <glyph glyph-name="kcommaaccent" unicode="&#x137;" horiz-adv-x="1052" 
d="M1024 1059l-475 -486l450 -573h-127l-393 504l-225 -228v-276h-100v1432h100v-1020l637 647h133zM545 -188q37 0 58.5 -28t21.5 -77q0 -98 -123 -260l-58 41q79 92 101 180q-32 0 -53 20.5t-21 51.5q0 29 21.5 50.5t52.5 21.5z" />
    <glyph glyph-name="Lacute" unicode="&#x139;" horiz-adv-x="1107" 
d="M500 1796l-258 -268h-105l254 293zM242 100h796v-100h-899v1407h103v-1307z" />
    <glyph glyph-name="lacute" unicode="&#x13a;" horiz-adv-x="411" 
d="M156 1552l254 293l108 -24l-258 -269h-104zM156 0v1432h100v-1432h-100z" />
    <glyph glyph-name="Lcaron" unicode="&#x13d;" horiz-adv-x="1107" 
d="M426 1067l-57 41q78 90 100 180q-32 0 -53 20.5t-21 51.5q0 29 21.5 50.5t52.5 21.5q37 0 58.5 -28t21.5 -77q0 -98 -123 -260zM242 100h796v-100h-899v1407h103v-1307z" />
    <glyph glyph-name="lcaron" unicode="&#x13e;" horiz-adv-x="411" 
d="M156 0v1432h100v-1432h-100zM440 1067l-57 41q78 90 100 180q-32 0 -52.5 20.5t-20.5 51.5q0 30 21 51t52 21q37 0 58.5 -28t21.5 -77q0 -98 -123 -260z" />
    <glyph glyph-name="Lslash" unicode="&#x141;" horiz-adv-x="1243" 
d="M377 100h797v-100h-900v606l-198 -102v106l198 103v694h103v-641l311 160v-107l-311 -160v-559z" />
    <glyph glyph-name="lslash" unicode="&#x142;" horiz-adv-x="577" 
d="M502 825v-106l-164 -84v-635h-100v584l-162 -84v106l162 84v742h100v-691z" />
    <glyph glyph-name="Nacute" unicode="&#x143;" horiz-adv-x="1519" 
d="M606 1528l254 293l109 -25l-258 -268h-105zM193 0v1407h102l930 -1243v1243h102v-1407h-102l-930 1243v-1243h-102z" />
    <glyph glyph-name="nacute" unicode="&#x144;" 
d="M797 1448l-258 -268h-105l254 293zM606 1083q173 0 284 -111t111 -284v-688h-100v674q0 138 -86.5 226.5t-222.5 88.5q-142 0 -238 -89.5t-96 -223.5v-676h-100v1059h100v-182q41 94 135 150t213 56z" />
    <glyph glyph-name="Ncommaaccent" unicode="&#x145;" horiz-adv-x="1519" 
d="M193 0v1407h102l930 -1243v1243h102v-1407h-102l-930 1243v-1243h-102zM717 -553l-58 41q79 92 101 180q-32 0 -53 20.5t-21 51.5q0 29 21.5 50.5t52.5 21.5q37 0 58.5 -28t21.5 -77q0 -98 -123 -260z" />
    <glyph glyph-name="ncommaaccent" unicode="&#x146;" 
d="M606 1083q173 0 284 -111t111 -284v-688h-100v674q0 138 -86.5 226.5t-222.5 88.5q-142 0 -238 -89.5t-96 -223.5v-676h-100v1059h100v-182q41 94 135 150t213 56zM588 -188q37 0 58.5 -28t21.5 -77q0 -98 -123 -260l-58 41q79 92 101 180q-32 0 -53 20.5t-21 51.5
q0 29 21.5 50.5t52.5 21.5z" />
    <glyph glyph-name="Ncaron" unicode="&#x147;" horiz-adv-x="1519" 
d="M707 1528l-213 280h98l168 -202l172 202h100l-217 -280h-108zM193 0v1407h102l930 -1243v1243h102v-1407h-102l-930 1243v-1243h-102z" />
    <glyph glyph-name="ncaron" unicode="&#x148;" 
d="M643 1180h-108l-213 280h98l168 -203l172 203h100zM606 1083q173 0 284 -111t111 -284v-688h-100v674q0 138 -86.5 226.5t-222.5 88.5q-142 0 -238 -89.5t-96 -223.5v-676h-100v1059h100v-182q41 94 135 150t213 56z" />
    <glyph glyph-name="Omacron" unicode="&#x14c;" horiz-adv-x="1652" 
d="M510 1577v86h635v-86h-635zM827 -25q-192 0 -358.5 99.5t-264.5 268t-98 362.5q0 145 58 279.5t155.5 232.5t230.5 156.5t277 58.5t277 -58.5t229.5 -156.5t154.5 -232.5t58 -279.5q0 -194 -97.5 -362.5t-263.5 -268t-358 -99.5zM827 74q123 0 237 51t197 136t133 201.5
t50 242.5q0 167 -84 312t-226.5 230.5t-306.5 85.5q-124 0 -238 -50.5t-197.5 -135.5t-133 -201t-49.5 -241q0 -168 84 -313.5t226.5 -231.5t307.5 -86z" />
    <glyph glyph-name="omacron" unicode="&#x14d;" horiz-adv-x="1292" 
d="M330 1229v86h635v-86h-635zM647 -25q-109 0 -210.5 45t-175.5 119.5t-118.5 177t-44.5 213.5q0 148 75 275.5t201.5 202.5t272.5 75q109 0 210.5 -44.5t175 -119t117.5 -176.5t44 -213t-44 -213.5t-117.5 -177.5t-175 -119.5t-210.5 -44.5zM647 70q180 0 312.5 136.5
t132.5 323.5q0 91 -36 176t-96 147t-142.5 99t-170.5 37q-181 0 -313.5 -136.5t-132.5 -322.5q0 -123 60.5 -229t163.5 -168.5t222 -62.5z" />
    <glyph glyph-name="Ohungarumlaut" unicode="&#x150;" horiz-adv-x="1652" 
d="M578 1528l253 293l109 -25l-258 -268h-104zM940 1528l254 291l111 -25l-258 -266h-107zM827 -25q-192 0 -358.5 99.5t-264.5 268t-98 362.5q0 145 58 279.5t155.5 232.5t230.5 156.5t277 58.5t277 -58.5t229.5 -156.5t154.5 -232.5t58 -279.5q0 -194 -97.5 -362.5
t-263.5 -268t-358 -99.5zM827 74q123 0 237 51t197 136t133 201.5t50 242.5q0 167 -84 312t-226.5 230.5t-306.5 85.5q-124 0 -238 -50.5t-197.5 -135.5t-133 -201t-49.5 -241q0 -168 84 -313.5t226.5 -231.5t307.5 -86z" />
    <glyph glyph-name="ohungarumlaut" unicode="&#x151;" horiz-adv-x="1292" 
d="M401 1180l254 293l109 -25l-258 -268h-105zM764 1180l254 290l110 -24l-258 -266h-106zM647 -25q-109 0 -210.5 45t-175.5 119.5t-118.5 177t-44.5 213.5q0 148 75 275.5t201.5 202.5t272.5 75q109 0 210.5 -44.5t175 -119t117.5 -176.5t44 -213t-44 -213.5
t-117.5 -177.5t-175 -119.5t-210.5 -44.5zM647 70q180 0 312.5 136.5t132.5 323.5q0 91 -36 176t-96 147t-142.5 99t-170.5 37q-181 0 -313.5 -136.5t-132.5 -322.5q0 -123 60.5 -229t163.5 -168.5t222 -62.5z" />
    <glyph glyph-name="OE" unicode="&#x152;" horiz-adv-x="2056" 
d="M1944 1307h-850v-541h780v-98h-780v-568h850v-100h-1117q-193 0 -358.5 91t-264 252.5t-98.5 354.5q0 145 58 277t155.5 226.5t230.5 150t277 55.5h1117v-100zM827 98h164v1211h-164q-166 0 -308 -81t-226 -222t-84 -308q0 -168 84 -306.5t225.5 -216t308.5 -77.5z" />
    <glyph glyph-name="oe" unicode="&#x153;" horiz-adv-x="2211" 
d="M1616 70q110 0 212 37t161 102l65 -70q-67 -73 -190 -118.5t-246 -45.5q-153 0 -282.5 88.5t-194.5 233.5q-67 -143 -201 -232.5t-293 -89.5q-109 0 -210.5 45t-175.5 119.5t-118.5 177t-44.5 213.5q0 148 75 275.5t201.5 202.5t272.5 75q157 0 291 -87.5t201 -227.5
q64 143 190.5 229t282.5 86q231 0 367.5 -163t136.5 -433h-922q15 -176 135.5 -296.5t286.5 -120.5zM647 70q180 0 312.5 136.5t132.5 323.5q0 91 -36 176t-96 147t-142.5 99t-170.5 37q-181 0 -313.5 -136.5t-132.5 -322.5q0 -123 60.5 -229t163.5 -168.5t222 -62.5z
M1614 989q-166 0 -284.5 -115t-135.5 -292h821q-11 183 -118 295t-283 112z" />
    <glyph glyph-name="Racute" unicode="&#x154;" horiz-adv-x="1316" 
d="M883 1796l-258 -268h-105l254 293zM1245 971q0 -172 -115.5 -290.5t-300.5 -141.5l377 -539h-121l-372 532h-449v-532h-102v1407h586q216 0 356.5 -122.5t140.5 -313.5zM264 1307v-674h463q184 0 299 93t115 245q0 150 -115 243t-299 93h-463z" />
    <glyph glyph-name="racute" unicode="&#x155;" horiz-adv-x="737" 
d="M633 1448l-258 -268h-105l254 293zM270 827q40 114 152.5 185t257.5 71v-94q-180 0 -295 -112t-115 -285v-592h-100v1059h100v-232z" />
    <glyph glyph-name="Rcommaaccent" unicode="&#x156;" horiz-adv-x="1316" 
d="M1245 971q0 -172 -115.5 -290.5t-300.5 -141.5l377 -539h-121l-372 532h-449v-532h-102v1407h586q216 0 356.5 -122.5t140.5 -313.5zM264 1307v-674h463q184 0 299 93t115 245q0 150 -115 243t-299 93h-463zM653 -188q37 0 58.5 -28t21.5 -77q0 -98 -123 -260l-57 41
q78 90 100 180q-32 0 -52.5 20.5t-20.5 51.5q0 30 21 51t52 21z" />
    <glyph glyph-name="rcommaaccent" unicode="&#x157;" horiz-adv-x="737" 
d="M270 827q40 114 152.5 185t257.5 71v-94q-180 0 -295 -112t-115 -285v-592h-100v1059h100v-232zM270 -188q37 0 58.5 -28t21.5 -77q0 -98 -123 -260l-57 41q78 90 100 180q-32 0 -52.5 20.5t-20.5 51.5q0 30 21.5 51t51.5 21z" />
    <glyph glyph-name="Rcaron" unicode="&#x158;" horiz-adv-x="1316" 
d="M729 1528h-108l-213 280h98l168 -202l172 202h100zM1245 971q0 -172 -115.5 -290.5t-300.5 -141.5l377 -539h-121l-372 532h-449v-532h-102v1407h586q216 0 356.5 -122.5t140.5 -313.5zM264 1307v-674h463q184 0 299 93t115 245q0 150 -115 243t-299 93h-463z" />
    <glyph glyph-name="rcaron" unicode="&#x159;" horiz-adv-x="737" 
d="M479 1180h-108l-213 280h98l168 -203l172 203h100zM270 827q40 114 152.5 185t257.5 71v-94q-180 0 -295 -112t-115 -285v-592h-100v1059h100v-232z" />
    <glyph glyph-name="Sacute" unicode="&#x15a;" horiz-adv-x="1241" 
d="M461 1528l254 293l108 -25l-258 -268h-104zM649 -23q-160 0 -303.5 58.5t-251.5 165.5l64 80q96 -96 224 -150.5t271 -54.5q168 0 271.5 80.5t103.5 203.5q0 115 -96 184.5t-314 121.5q-244 56 -352 138.5t-108 227.5q0 174 128.5 288t327.5 114q136 0 261 -52.5
t227 -148.5l-62 -80q-191 182 -432 182q-151 0 -249.5 -84t-98.5 -211q0 -101 95.5 -163t314.5 -115q240 -57 350 -146.5t110 -246.5q0 -170 -131.5 -281t-349.5 -111z" />
    <glyph glyph-name="sacute" unicode="&#x15b;" horiz-adv-x="1001" 
d="M362 1180l254 293l109 -25l-258 -268h-105zM530 -25q-113 0 -229 41.5t-209 116.5l58 76q191 -139 380 -139q115 0 194 54t79 132q0 86 -70 139.5t-223 98.5q-191 59 -271.5 128.5t-80.5 176.5q0 122 103.5 203t252.5 81q196 0 379 -118l-55 -78q-158 102 -324 102
q-106 0 -181 -51t-75 -127q0 -75 68 -125t233 -102q177 -56 260.5 -127t83.5 -189q0 -124 -109 -208.5t-264 -84.5z" />
    <glyph glyph-name="Scedilla" unicode="&#x15e;" horiz-adv-x="1241" 
d="M1130 369q0 -165 -124 -275t-330 -117l-31 -71q8 2 27 2q61 0 99 -37t38 -96q0 -70 -56.5 -119t-136.5 -49q-93 0 -170 57l33 74q61 -49 135 -49q46 0 78.5 26.5t32.5 63.5q0 31 -22.5 51t-61.5 20q-41 0 -70 -22l-32 35l49 117q-142 10 -269.5 67.5t-224.5 153.5l64 80
q96 -96 224 -150.5t271 -54.5q168 0 271.5 80.5t103.5 203.5q0 115 -96 184.5t-314 121.5q-244 56 -352 138.5t-108 227.5q0 174 128.5 288t327.5 114q136 0 261 -52.5t227 -148.5l-62 -80q-191 182 -432 182q-151 0 -249.5 -84t-98.5 -211q0 -101 95.5 -163t314.5 -115
q240 -57 350 -146.5t110 -246.5z" />
    <glyph glyph-name="scedilla" unicode="&#x15f;" horiz-adv-x="1001" 
d="M903 268q0 -119 -101.5 -203t-250.5 -90l-29 -69q8 2 27 2q61 0 99 -37t38 -96q0 -70 -56 -119t-136 -49q-93 0 -170 57l32 74q61 -49 136 -49q46 0 78 26.5t32 63.5q0 31 -22.5 51t-61.5 20q-40 0 -69 -22l-33 35l49 117q-212 23 -373 153l58 76q191 -139 380 -139
q115 0 194 54t79 132q0 86 -70 139.5t-223 98.5q-191 59 -271.5 128.5t-80.5 176.5q0 122 103.5 203t252.5 81q196 0 379 -118l-55 -78q-158 102 -324 102q-106 0 -181 -51t-75 -127q0 -75 68 -125t233 -102q177 -56 260.5 -127t83.5 -189z" />
    <glyph glyph-name="Scaron" unicode="&#x160;" horiz-adv-x="1241" 
d="M561 1528l-213 280h98l168 -202l172 202h101l-217 -280h-109zM649 -23q-160 0 -303.5 58.5t-251.5 165.5l64 80q96 -96 224 -150.5t271 -54.5q168 0 271.5 80.5t103.5 203.5q0 115 -96 184.5t-314 121.5q-244 56 -352 138.5t-108 227.5q0 174 128.5 288t327.5 114
q136 0 261 -52.5t227 -148.5l-62 -80q-191 182 -432 182q-151 0 -249.5 -84t-98.5 -211q0 -101 95.5 -163t314.5 -115q240 -57 350 -146.5t110 -246.5q0 -170 -131.5 -281t-349.5 -111z" />
    <glyph glyph-name="scaron" unicode="&#x161;" horiz-adv-x="1001" 
d="M463 1180l-213 280h98l168 -203l172 203h100l-217 -280h-108zM530 -25q-113 0 -229 41.5t-209 116.5l58 76q191 -139 380 -139q115 0 194 54t79 132q0 86 -70 139.5t-223 98.5q-191 59 -271.5 128.5t-80.5 176.5q0 122 103.5 203t252.5 81q196 0 379 -118l-55 -78
q-158 102 -324 102q-106 0 -181 -51t-75 -127q0 -75 68 -125t233 -102q177 -56 260.5 -127t83.5 -189q0 -124 -109 -208.5t-264 -84.5z" />
    <glyph glyph-name="uni0162" unicode="&#x162;" horiz-adv-x="1290" 
d="M1198 1307h-502v-1284h9l-9 -19v-4h-2l-39 -94q8 2 27 2q61 0 99 -37t38 -96q0 -70 -56 -119t-136 -49q-93 0 -170 57l32 74q61 -49 136 -49q46 0 78 26.5t32 63.5q0 31 -22.5 51t-61.5 20q-40 0 -69 -22l-33 35l57 137h-12v1307h-502v100h1106v-100z" />
    <glyph glyph-name="uni0163" unicode="&#x163;" horiz-adv-x="743" 
d="M530 -92q61 0 99.5 -37t38.5 -96q0 -70 -56.5 -119t-136.5 -49q-93 0 -170 57l33 74q61 -49 135 -49q46 0 78.5 26.5t32.5 63.5q0 31 -22.5 51t-61.5 20q-41 0 -70 -22l-33 35l49 117q-86 13 -138 86.5t-52 179.5v719h-180v94h180v291h100v-291h273v-94h-273v-719
q0 -76 38.5 -126t97.5 -50q78 0 139 51l51 -78q-66 -51 -147 -63l-31 -74q8 2 26 2z" />
    <glyph glyph-name="Tcaron" unicode="&#x164;" horiz-adv-x="1290" 
d="M592 1528l-213 280h98l168 -202l172 202h101l-218 -280h-108zM594 0v1307h-502v100h1106v-100h-502v-1307h-102z" />
    <glyph glyph-name="tcaron" unicode="&#x165;" horiz-adv-x="743" 
d="M856 1432q37 0 58.5 -28t21.5 -77q0 -98 -123 -260l-57 41q78 90 100 180q-32 0 -53 20.5t-21 51.5q0 29 21.5 50.5t52.5 21.5zM492 70q78 0 139 51l51 -78q-87 -68 -197 -68q-101 0 -165 76t-64 195v719h-180v94h180v291h100v-291h273v-94h-273v-719q0 -76 38.5 -126
t97.5 -50z" />
    <glyph glyph-name="Umacron" unicode="&#x16a;" horiz-adv-x="1470" 
d="M418 1577v86h635v-86h-635zM735 -25q-246 0 -402.5 163.5t-156.5 418.5v850h103v-850q0 -212 127.5 -347.5t328.5 -135.5t329 135.5t128 347.5v850h102v-850q0 -255 -156.5 -418.5t-402.5 -163.5z" />
    <glyph glyph-name="umacron" unicode="&#x16b;" 
d="M895 1315v-86h-635v86h635zM899 1059h100v-1059h-100v182q-42 -94 -135.5 -150.5t-212.5 -56.5q-173 0 -284 111.5t-111 284.5v688h100v-674q0 -138 86.5 -226.5t222.5 -88.5q142 0 238 89.5t96 223.5v676z" />
    <glyph glyph-name="Uring" unicode="&#x16e;" horiz-adv-x="1470" 
d="M735 1554q-86 0 -148.5 62.5t-62.5 148.5t62.5 148.5t148.5 62.5t148.5 -62.5t62.5 -148.5t-62.5 -148.5t-148.5 -62.5zM735 1630q54 0 94.5 40.5t40.5 94.5t-40.5 95t-94.5 41t-94.5 -41t-40.5 -95t40.5 -94.5t94.5 -40.5zM735 -25q-246 0 -402.5 163.5t-156.5 418.5
v850h103v-850q0 -212 127.5 -347.5t328.5 -135.5t329 135.5t128 347.5v850h102v-850q0 -255 -156.5 -418.5t-402.5 -163.5z" />
    <glyph glyph-name="uring" unicode="&#x16f;" 
d="M578 1206q-86 0 -148.5 62.5t-62.5 148.5t62.5 148.5t148.5 62.5t148 -62.5t62 -148.5t-62 -148.5t-148 -62.5zM578 1552q-54 0 -95 -40.5t-41 -94.5t41 -94.5t95 -40.5t94.5 40.5t40.5 94.5t-40.5 94.5t-94.5 40.5zM899 1059h100v-1059h-100v182q-42 -94 -135.5 -150.5
t-212.5 -56.5q-173 0 -284 111.5t-111 284.5v688h100v-674q0 -138 86.5 -226.5t222.5 -88.5q142 0 238 89.5t96 223.5v676z" />
    <glyph glyph-name="Uhungarumlaut" unicode="&#x170;" horiz-adv-x="1470" 
d="M467 1528l254 293l108 -25l-258 -268h-104zM829 1528l254 291l111 -25l-258 -266h-107zM735 -25q-246 0 -402.5 163.5t-156.5 418.5v850h103v-850q0 -212 127.5 -347.5t328.5 -135.5t329 135.5t128 347.5v850h102v-850q0 -255 -156.5 -418.5t-402.5 -163.5z" />
    <glyph glyph-name="uhungarumlaut" unicode="&#x171;" 
d="M690 1448l-258 -268h-104l254 293zM797 1180h-107l254 290l111 -24zM899 383v676h100v-1059h-100v182q-42 -94 -135.5 -150.5t-212.5 -56.5q-173 0 -284 111.5t-111 284.5v688h100v-674q0 -138 86.5 -226.5t222.5 -88.5q142 0 238 89.5t96 223.5z" />
    <glyph glyph-name="Uogonek" unicode="&#x172;" horiz-adv-x="1470" 
d="M1192 1407h102v-850q0 -255 -156.5 -418.5t-402.5 -163.5q-33 0 -47 2q-51 -36 -51 -112q0 -61 34.5 -95t96.5 -34q73 0 113 43l49 -74q-72 -59 -172 -59q-93 0 -151 58t-58 151q0 79 53 135q-193 43 -309.5 196.5t-116.5 370.5v850h103v-850q0 -212 127.5 -347.5
t328.5 -135.5t329 135.5t128 347.5v850z" />
    <glyph glyph-name="uogonek" unicode="&#x173;" 
d="M1112 -221l49 -74q-72 -59 -172 -59q-93 0 -151 58t-58 151q0 62 33 110.5t86 67.5v149q-42 -94 -135.5 -150.5t-212.5 -56.5q-173 0 -284 111.5t-111 284.5v688h100v-674q0 -138 86.5 -226.5t222.5 -88.5q142 0 238 89.5t96 223.5v676h100v-1059q-61 0 -96 -36t-35 -99
q0 -61 34 -95t97 -34q73 0 113 43z" />
    <glyph glyph-name="Wcircumflex" unicode="&#x174;" horiz-adv-x="2148" 
d="M809 1528l213 280h108l218 -280h-101l-172 203l-168 -203h-98zM551 0l-475 1407h112l418 -1239l412 1239h112l412 -1239l418 1239h113l-476 -1407h-104l-418 1257l-420 -1257h-104z" />
    <glyph glyph-name="wcircumflex" unicode="&#x175;" horiz-adv-x="1650" 
d="M561 1180l213 280h109l217 -280h-101l-172 202l-168 -202h-98zM420 0l-348 1059h104l301 -926l307 926h86l310 -926l299 926h104l-350 -1059h-111l-295 897l-297 -897h-110z" />
    <glyph glyph-name="Ycircumflex" unicode="&#x176;" horiz-adv-x="1320" 
d="M395 1528l213 280h109l217 -280h-100l-172 203l-168 -203h-99zM608 0v571l-571 836h129l496 -729l495 729h127l-571 -836v-571h-105z" />
    <glyph glyph-name="ycircumflex" unicode="&#x177;" horiz-adv-x="1179" 
d="M315 1180l213 280h109l217 -280h-100l-172 202l-168 -202h-99zM279 -369q-96 0 -168 35l24 94q72 -32 141 -32q133 0 191 98l61 143l-467 1090h111l410 -965l393 965h108l-493 -1202q-91 -223 -311 -226z" />
    <glyph glyph-name="Ydieresis" unicode="&#x178;" horiz-adv-x="1320" 
d="M465 1593q-30 0 -51 21t-21 51t21 51t51 21q29 0 50.5 -21.5t21.5 -50.5t-21.5 -50.5t-50.5 -21.5zM858 1593q-30 0 -51 21t-21 51t21 51t51 21q29 0 50.5 -21.5t21.5 -50.5t-21.5 -50.5t-50.5 -21.5zM608 0v571l-571 836h129l496 -729l495 729h127l-571 -836v-571h-105z
" />
    <glyph glyph-name="Zacute" unicode="&#x179;" horiz-adv-x="1282" 
d="M492 1528l253 293l109 -25l-258 -268h-104zM119 0v84l907 1223h-893v100h1026v-84l-907 -1223h915v-100h-1048z" />
    <glyph glyph-name="zacute" unicode="&#x17a;" horiz-adv-x="1052" 
d="M381 1180l254 293l108 -25l-258 -268h-104zM111 0v82l698 879h-686v98h819v-82l-698 -879h702v-98h-835z" />
    <glyph glyph-name="Zdotaccent" unicode="&#x17b;" horiz-adv-x="1282" 
d="M645 1593q-30 0 -51 21t-21 51t21 51t51 21q29 0 51.5 -21.5t22.5 -50.5t-22.5 -50.5t-51.5 -21.5zM119 0v84l907 1223h-893v100h1026v-84l-907 -1223h915v-100h-1048z" />
    <glyph glyph-name="zdotaccent" unicode="&#x17c;" horiz-adv-x="1052" 
d="M535 1245q-30 0 -51 21t-21 51t21 51t51 21q29 0 51 -21.5t22 -50.5t-22 -50.5t-51 -21.5zM111 0v82l698 879h-686v98h819v-82l-698 -879h702v-98h-835z" />
    <glyph glyph-name="Zcaron" unicode="&#x17d;" horiz-adv-x="1282" 
d="M592 1528l-213 280h98l168 -202l172 202h101l-218 -280h-108zM119 0v84l907 1223h-893v100h1026v-84l-907 -1223h915v-100h-1048z" />
    <glyph glyph-name="zcaron" unicode="&#x17e;" horiz-adv-x="1052" 
d="M481 1180l-213 280h99l168 -203l172 203h100l-217 -280h-109zM111 0v82l698 879h-686v98h819v-82l-698 -879h702v-98h-835z" />
    <glyph glyph-name="uni0237" unicode="&#x237;" horiz-adv-x="372" 
d="M4 -365q-87 0 -166 33l19 88q65 -26 141 -26q61 0 99 45t38 116v1168h101v-1168q0 -113 -64.5 -184.5t-167.5 -71.5z" />
    <glyph glyph-name="circumflex" unicode="&#x2c6;" horiz-adv-x="796" 
d="M129 1180l213 280h109l217 -280h-101l-172 202l-168 -202h-98z" />
    <glyph glyph-name="caron" unicode="&#x2c7;" horiz-adv-x="796" 
d="M342 1180l-213 280h98l168 -203l172 203h101l-217 -280h-109z" />
    <glyph glyph-name="breve" unicode="&#x2d8;" horiz-adv-x="856" 
d="M428 1206q-173 0 -299 123l68 68q46 -46 107 -71.5t124 -25.5t124 25.5t107 71.5l68 -68q-123 -123 -299 -123z" />
    <glyph glyph-name="dotaccent" unicode="&#x2d9;" horiz-adv-x="403" 
d="M201 1245q-30 0 -51 21t-21 51t21 51t51 21q29 0 51 -21.5t22 -50.5t-22 -50.5t-51 -21.5z" />
    <glyph glyph-name="ring" unicode="&#x2da;" horiz-adv-x="679" 
d="M340 1206q-86 0 -148.5 62.5t-62.5 148.5t62.5 148.5t148.5 62.5t148.5 -62.5t62.5 -148.5t-62.5 -148.5t-148.5 -62.5zM340 1282q54 0 94.5 40.5t40.5 94.5t-40.5 94.5t-94.5 40.5t-94.5 -40.5t-40.5 -94.5t40.5 -94.5t94.5 -40.5z" />
    <glyph glyph-name="ogonek" unicode="&#x2db;" horiz-adv-x="638" 
d="M338 -354q-93 0 -151 58t-58 151q0 70 41 122t104 64l74 -41q-61 0 -96 -36t-35 -99q0 -61 34.5 -95t96.5 -34q73 0 113 43l49 -74q-72 -59 -172 -59z" />
    <glyph glyph-name="tilde" unicode="&#x2dc;" horiz-adv-x="923" 
d="M594 1192q-41 0 -80.5 21t-65.5 46.5t-58 46.5t-60 21q-40 0 -68.5 -39.5t-40.5 -113.5l-82 14q15 109 65 169t126 60q41 0 80.5 -21t65.5 -46.5t58 -46.5t60 -21q40 0 68 39.5t40 114.5l82 -15q-15 -110 -64 -169.5t-126 -59.5z" />
    <glyph glyph-name="hungarumlaut" unicode="&#x2dd;" horiz-adv-x="985" 
d="M129 1180l254 293l109 -25l-259 -268h-104zM492 1180l253 290l111 -24l-258 -266h-106z" />
    <glyph glyph-name="uni0326" unicode="&#x326;" horiz-adv-x="0" 
d="M-283 -553l-57 41q78 90 100 180q-32 0 -52.5 20.5t-20.5 51.5q0 30 21.5 51t51.5 21q37 0 58.5 -28t21.5 -77q0 -98 -123 -260z" />
    <glyph glyph-name="Wgrave" unicode="&#x1e80;" horiz-adv-x="2148" 
d="M1024 1528l-258 268l111 25l251 -293h-104zM551 0l-475 1407h112l418 -1239l412 1239h112l412 -1239l418 1239h113l-476 -1407h-104l-418 1257l-420 -1257h-104z" />
    <glyph glyph-name="wgrave" unicode="&#x1e81;" horiz-adv-x="1650" 
d="M778 1180l-258 268l111 25l252 -293h-105zM420 0l-348 1059h104l301 -926l307 926h86l310 -926l299 926h104l-350 -1059h-111l-295 897l-297 -897h-110z" />
    <glyph glyph-name="Wacute" unicode="&#x1e82;" horiz-adv-x="2148" 
d="M1020 1528l254 293l108 -25l-258 -268h-104zM551 0l-475 1407h112l418 -1239l412 1239h112l412 -1239l418 1239h113l-476 -1407h-104l-418 1257l-420 -1257h-104z" />
    <glyph glyph-name="wacute" unicode="&#x1e83;" horiz-adv-x="1650" 
d="M774 1180l254 293l109 -25l-258 -268h-105zM420 0l-348 1059h104l301 -926l307 926h86l310 -926l299 926h104l-350 -1059h-111l-295 897l-297 -897h-110z" />
    <glyph glyph-name="Wdieresis" unicode="&#x1e84;" horiz-adv-x="2148" 
d="M879 1593q-30 0 -51 21t-21 51t21 51t51 21q29 0 50 -21.5t21 -50.5t-21 -50.5t-50 -21.5zM1272 1593q-30 0 -51 21t-21 51t21 51t51 21q29 0 50 -21.5t21 -50.5t-21 -50.5t-50 -21.5zM551 0l-475 1407h112l418 -1239l412 1239h112l412 -1239l418 1239h113l-476 -1407
h-104l-418 1257l-420 -1257h-104z" />
    <glyph glyph-name="wdieresis" unicode="&#x1e85;" horiz-adv-x="1650" 
d="M631 1245q-30 0 -51 21t-21 51t21 51t51 21q29 0 50 -21.5t21 -50.5t-21 -50.5t-50 -21.5zM1024 1245q-30 0 -51 21t-21 51t21 51t51 21q29 0 50.5 -21.5t21.5 -50.5t-21.5 -50.5t-50.5 -21.5zM420 0l-348 1059h104l301 -926l307 926h86l310 -926l299 926h104l-350 -1059
h-111l-295 897l-297 -897h-110z" />
    <glyph glyph-name="uni1EB8" unicode="&#x1eb8;" horiz-adv-x="1226" 
d="M1114 1307h-850v-541h780v-98h-780v-568h850v-100h-952v1407h952v-100zM637 -188q29 0 51.5 -21.5t22.5 -50.5t-22.5 -50.5t-51.5 -21.5q-30 0 -51 21t-21 51t21 51t51 21z" />
    <glyph glyph-name="uni1EB9" unicode="&#x1eb9;" horiz-adv-x="1218" 
d="M623 70q110 0 211.5 37t160.5 102l66 -70q-67 -73 -190 -118.5t-246 -45.5q-105 0 -201.5 43.5t-168 117.5t-114.5 178t-43 218q0 153 69.5 279.5t188.5 199t262 72.5q231 0 367.5 -163t136.5 -433h-921q15 -176 135.5 -296.5t286.5 -120.5zM621 989q-166 0 -284.5 -115
t-135.5 -292h821q-11 183 -118 295t-283 112zM616 -188q29 0 51.5 -21.5t22.5 -50.5t-22.5 -50.5t-51.5 -21.5q-30 0 -50.5 21t-20.5 51t20.5 51t50.5 21z" />
    <glyph glyph-name="uni1EBC" unicode="&#x1ebc;" horiz-adv-x="1226" 
d="M506 1675q-40 0 -68.5 -39.5t-40.5 -113.5l-82 14q15 109 65 169t126 60q41 0 80.5 -21t65.5 -46.5t58 -46.5t60 -21q40 0 68.5 40t40.5 114l82 -15q-15 -110 -64.5 -169.5t-126.5 -59.5q-41 0 -80.5 21t-65.5 46.5t-58 46.5t-60 21zM1114 1307h-850v-541h780v-98h-780
v-568h850v-100h-952v1407h952v-100z" />
    <glyph glyph-name="uni1EBD" unicode="&#x1ebd;" horiz-adv-x="1218" 
d="M485 1327q-40 0 -68 -39.5t-40 -113.5l-82 14q15 109 64.5 169t125.5 60q41 0 80.5 -21t66 -46.5t58.5 -46.5t60 -21q40 0 68 39.5t40 114.5l82 -15q-15 -110 -64 -169.5t-126 -59.5q-41 0 -80.5 21t-66 46.5t-58.5 46.5t-60 21zM623 70q110 0 211.5 37t160.5 102l66 -70
q-67 -73 -190 -118.5t-246 -45.5q-105 0 -201.5 43.5t-168 117.5t-114.5 178t-43 218q0 153 69.5 279.5t188.5 199t262 72.5q231 0 367.5 -163t136.5 -433h-921q15 -176 135.5 -296.5t286.5 -120.5zM621 989q-166 0 -284.5 -115t-135.5 -292h821q-11 183 -118 295t-283 112z
" />
    <glyph glyph-name="Ygrave" unicode="&#x1ef2;" horiz-adv-x="1320" 
d="M702 1528l-258 268l111 25l252 -293h-105zM608 0v571l-571 836h129l496 -729l495 729h127l-571 -836v-571h-105z" />
    <glyph glyph-name="ygrave" unicode="&#x1ef3;" horiz-adv-x="1179" 
d="M623 1180l-258 268l110 25l252 -293h-104zM279 -369q-96 0 -168 35l24 94q72 -32 141 -32q133 0 191 98l61 143l-467 1090h111l410 -965l393 965h108l-493 -1202q-91 -223 -311 -226z" />
    <glyph glyph-name="endash" unicode="&#x2013;" horiz-adv-x="1181" 
d="M115 508v98h952v-98h-952z" />
    <glyph glyph-name="emdash" unicode="&#x2014;" horiz-adv-x="1806" 
d="M115 508v98h1577v-98h-1577z" />
    <glyph glyph-name="quoteleft" unicode="&#x2018;" horiz-adv-x="509" 
d="M287 1364l61 -45q-84 -97 -106 -189q35 0 57.5 -22t22.5 -55q0 -32 -23 -55t-57 -23q-40 0 -63 30t-23 82q0 108 131 277z" />
    <glyph glyph-name="quoteright" unicode="&#x2019;" horiz-adv-x="509" 
d="M223 954l-61 45q84 97 106 189q-35 0 -57.5 22.5t-22.5 55.5q0 32 23 54.5t57 22.5q40 0 63 -30t23 -82q0 -108 -131 -277z" />
    <glyph glyph-name="quotedblleft" unicode="&#x201c;" horiz-adv-x="890" 
d="M287 1364l61 -45q-84 -97 -106 -189q35 0 57.5 -22t22.5 -55q0 -32 -23 -55t-57 -23q-40 0 -63 30t-23 82q0 108 131 277zM668 1364l61 -45q-84 -97 -106 -189q35 0 57 -22t22 -55t-23 -55.5t-56 -22.5q-40 0 -63 30t-23 82q0 108 131 277z" />
    <glyph glyph-name="quotedblright" unicode="&#x201d;" horiz-adv-x="890" 
d="M223 954l-61 45q84 97 106 189q-35 0 -57.5 22.5t-22.5 55.5q0 32 23 54.5t57 22.5q40 0 63 -30t23 -82q0 -108 -131 -277zM606 954l-61 45q84 97 106 189q-35 0 -57.5 22.5t-22.5 55.5q0 32 23 54.5t57 22.5q40 0 63 -30t23 -82q0 -108 -131 -277z" />
    <glyph glyph-name="ellipsis" unicode="&#x2026;" horiz-adv-x="1218" 
d="M229 -25q-33 0 -56 23.5t-23 56.5q0 30 23 53t56 23q30 0 53 -23t23 -53q0 -32 -22.5 -56t-53.5 -24zM612 -25q-33 0 -56.5 23.5t-23.5 56.5q0 30 23.5 53t56.5 23q30 0 53 -23t23 -53q0 -32 -22.5 -56t-53.5 -24zM993 -25q-33 0 -56.5 23.5t-23.5 56.5q0 30 23.5 53
t56.5 23q30 0 53 -23t23 -53q0 -32 -22.5 -56t-53.5 -24z" />
    <glyph glyph-name="perthousand" unicode="&#x2030;" horiz-adv-x="2355" 
d="M403 715q-136 0 -221.5 98t-85.5 250q0 156 87 256t223 100t221.5 -99.5t85.5 -252.5q0 -154 -87.5 -253t-222.5 -99zM262 0l963 1407h110l-962 -1407h-111zM406 801q94 0 154.5 74.5t60.5 189.5q0 117 -61.5 192.5t-156.5 75.5t-155 -75.5t-60 -192.5q0 -115 62 -189.5
t156 -74.5zM1186 -20q-135 0 -221 99t-86 253q0 153 86.5 252.5t222.5 99.5t221.5 -99t85.5 -251q0 -154 -87 -254t-222 -100zM1948 -20q-134 0 -221 99.5t-87 252.5t87 252.5t223 99.5t221.5 -99t85.5 -251q0 -154 -87 -254t-222 -100zM1188 66q94 0 154.5 74.5t60.5 191.5
t-61 191.5t-156 74.5t-155 -74.5t-60 -189.5q0 -117 61 -192.5t156 -75.5zM1950 66q95 0 155 74.5t60 191.5t-61 191.5t-156 74.5t-155 -74.5t-60 -189.5q0 -117 61 -192.5t156 -75.5z" />
    <glyph glyph-name="Euro" unicode="&#x20ac;" horiz-adv-x="1392" 
d="M827 74q124 0 236.5 49.5t198.5 138.5l71 -72q-101 -101 -232 -158t-274 -57q-240 0 -432.5 150.5t-259.5 380.5h-184v94h164q-9 52 -9 105q0 73 15 143h-170v94h196q76 215 263.5 352.5t416.5 137.5q144 0 275 -56.5t231 -158.5l-71 -72q-86 89 -198.5 138.5
t-236.5 49.5q-188 0 -343.5 -109t-227.5 -282h711v-94h-742q-16 -75 -16 -143q0 -58 8 -105h750v-94h-725q64 -189 225.5 -310.5t359.5 -121.5z" />
    <glyph glyph-name="minus" unicode="&#x2212;" horiz-adv-x="1214" 
d="M137 635v98h940v-98h-940z" />
    <glyph glyph-name="a.alt" horiz-adv-x="1253" 
d="M983 1059h100v-1059h-100v215q-62 -114 -168 -177t-240 -63q-130 0 -240 73.5t-174.5 201.5t-64.5 280t64.5 279.5t174.5 200.5t240 73q133 0 239.5 -62.5t168.5 -174.5v213zM596 70q169 0 278 129t109 331q0 201 -109 330t-278 129q-164 0 -279.5 -134t-115.5 -325
q0 -192 115.5 -326t279.5 -134z" />
    <glyph glyph-name="aacute.alt" horiz-adv-x="1253" 
d="M821 1448l-258 -268h-104l254 293zM983 1059h100v-1059h-100v215q-62 -114 -168 -177t-240 -63q-130 0 -240 73.5t-174.5 201.5t-64.5 280t64.5 279.5t174.5 200.5t240 73q133 0 239.5 -62.5t168.5 -174.5v213zM596 70q169 0 278 129t109 331q0 201 -109 330t-278 129
q-164 0 -279.5 -134t-115.5 -325q0 -192 115.5 -326t279.5 -134z" />
    <glyph glyph-name="abreve.alt" horiz-adv-x="1253" 
d="M911 1329q-123 -123 -299 -123q-173 0 -299 123l68 68q46 -46 107 -71.5t124 -25.5t124.5 25.5t107.5 71.5zM983 1059h100v-1059h-100v215q-62 -114 -168 -177t-240 -63q-130 0 -240 73.5t-174.5 201.5t-64.5 280t64.5 279.5t174.5 200.5t240 73q133 0 239.5 -62.5
t168.5 -174.5v213zM596 70q169 0 278 129t109 331q0 201 -109 330t-278 129q-164 0 -279.5 -134t-115.5 -325q0 -192 115.5 -326t279.5 -134z" />
    <glyph glyph-name="acircumflex.alt" horiz-adv-x="1253" 
d="M612 1382l-168 -202h-98l213 280h109l217 -280h-101zM983 1059h100v-1059h-100v215q-62 -114 -168 -177t-240 -63q-130 0 -240 73.5t-174.5 201.5t-64.5 280t64.5 279.5t174.5 200.5t240 73q133 0 239.5 -62.5t168.5 -174.5v213zM596 70q169 0 278 129t109 331
q0 201 -109 330t-278 129q-164 0 -279.5 -134t-115.5 -325q0 -192 115.5 -326t279.5 -134z" />
    <glyph glyph-name="adieresis.alt" horiz-adv-x="1253" 
d="M416 1245q-30 0 -51 21t-21 51t21 51t51 21q29 0 50 -21.5t21 -50.5t-21 -50.5t-50 -21.5zM809 1245q-30 0 -51 21t-21 51t21 51t51 21q29 0 50.5 -21.5t21.5 -50.5t-21.5 -50.5t-50.5 -21.5zM983 1059h100v-1059h-100v215q-62 -114 -168 -177t-240 -63q-130 0 -240 73.5
t-174.5 201.5t-64.5 280t64.5 279.5t174.5 200.5t240 73q133 0 239.5 -62.5t168.5 -174.5v213zM596 70q169 0 278 129t109 331q0 201 -109 330t-278 129q-164 0 -279.5 -134t-115.5 -325q0 -192 115.5 -326t279.5 -134z" />
    <glyph glyph-name="agrave.alt" horiz-adv-x="1253" 
d="M758 1180h-105l-258 268l111 25zM983 1059h100v-1059h-100v215q-62 -114 -168 -177t-240 -63q-130 0 -240 73.5t-174.5 201.5t-64.5 280t64.5 279.5t174.5 200.5t240 73q133 0 239.5 -62.5t168.5 -174.5v213zM596 70q169 0 278 129t109 331q0 201 -109 330t-278 129
q-164 0 -279.5 -134t-115.5 -325q0 -192 115.5 -326t279.5 -134z" />
    <glyph glyph-name="amacron.alt" horiz-adv-x="1253" 
d="M930 1315v-86h-635v86h635zM983 1059h100v-1059h-100v215q-62 -114 -168 -177t-240 -63q-130 0 -240 73.5t-174.5 201.5t-64.5 280t64.5 279.5t174.5 200.5t240 73q133 0 239.5 -62.5t168.5 -174.5v213zM596 70q169 0 278 129t109 331q0 201 -109 330t-278 129
q-164 0 -279.5 -134t-115.5 -325q0 -192 115.5 -326t279.5 -134z" />
    <glyph glyph-name="aogonek.alt" horiz-adv-x="1253" 
d="M1196 -221l49 -74q-72 -59 -172 -59q-93 0 -151 58t-58 151q0 62 33 110.5t86 67.5v182q-62 -114 -168 -177t-240 -63q-130 0 -240 73.5t-174.5 201.5t-64.5 280t64.5 279.5t174.5 200.5t240 73q133 0 239.5 -62.5t168.5 -174.5v213h100v-1059q-61 0 -96 -36t-35 -99
q0 -61 34 -95t97 -34q73 0 113 43zM596 70q169 0 278 129t109 331q0 201 -109 330t-278 129q-164 0 -279.5 -134t-115.5 -325q0 -192 115.5 -326t279.5 -134z" />
    <glyph glyph-name="aring.alt" horiz-adv-x="1253" 
d="M612 1206q-86 0 -148.5 62.5t-62.5 148.5t62.5 148.5t148.5 62.5t148.5 -62.5t62.5 -148.5t-62.5 -148.5t-148.5 -62.5zM612 1552q-54 0 -94.5 -40.5t-40.5 -94.5t40.5 -94.5t94.5 -40.5t95 40.5t41 94.5t-41 94.5t-95 40.5zM983 1059h100v-1059h-100v215
q-62 -114 -168 -177t-240 -63q-130 0 -240 73.5t-174.5 201.5t-64.5 280t64.5 279.5t174.5 200.5t240 73q133 0 239.5 -62.5t168.5 -174.5v213zM596 70q169 0 278 129t109 331q0 201 -109 330t-278 129q-164 0 -279.5 -134t-115.5 -325q0 -192 115.5 -326t279.5 -134z" />
    <glyph glyph-name="atilde.alt" horiz-adv-x="1253" 
d="M479 1327q-40 0 -68 -39.5t-40 -113.5l-82 14q15 109 64.5 169t125.5 60q41 0 80.5 -21t65.5 -46.5t58 -46.5t60 -21q40 0 68.5 40t40.5 114l82 -15q-15 -110 -64.5 -169.5t-126.5 -59.5q-41 0 -80.5 21t-65.5 46.5t-58 46.5t-60 21zM983 1059h100v-1059h-100v215
q-62 -114 -168 -177t-240 -63q-130 0 -240 73.5t-174.5 201.5t-64.5 280t64.5 279.5t174.5 200.5t240 73q133 0 239.5 -62.5t168.5 -174.5v213zM596 70q169 0 278 129t109 331q0 201 -109 330t-278 129q-164 0 -279.5 -134t-115.5 -325q0 -192 115.5 -326t279.5 -134z" />
    <glyph glyph-name="ascender" horiz-adv-x="1267" 
d="M170 0v1432h100v-1432h-100z" />
    <glyph glyph-name="descender" horiz-adv-x="1267" 
d="M170 -352v1411h100v-1411h-100z" />
    </font>
</defs>
</svg>
